<?xml version="1.0" encoding="UTF-8"?>
<!DOCTYPE svg PUBLIC "-//W3C//DTD SVG 1.1//EN" "http://www.w3.org/Graphics/SVG/1.1/DTD/svg11.dtd">
<svg xmlns="http://www.w3.org/2000/svg" version="1.1" width="354px" height="354px" style="shape-rendering:geometricPrecision; text-rendering:geometricPrecision; image-rendering:optimizeQuality; fill-rule:evenodd; clip-rule:evenodd" xmlns:xlink="http://www.w3.org/1999/xlink">
<g><path style="opacity:1" fill="#efb721" d="M 188.5,20.5 C 188.369,21.3764 188.702,22.0431 189.5,22.5C 192.595,20.8859 195.261,21.3859 197.5,24C 199.81,24.4966 202.143,24.6633 204.5,24.5C 205.038,26.1172 205.371,27.7839 205.5,29.5C 211.334,28.3373 214,30.6706 213.5,36.5C 215.401,36.4332 217.234,36.7665 219,37.5C 220.301,37.3613 221.134,36.6946 221.5,35.5C 222.833,34.1667 224.167,34.1667 225.5,35.5C 226.458,36.9616 227.624,38.2949 229,39.5C 230.356,38.6198 231.856,38.2865 233.5,38.5C 234.167,39.8333 235.167,40.8333 236.5,41.5C 236.5,42.5 236.5,43.5 236.5,44.5C 241.833,43.8333 244.167,46.1667 243.5,51.5C 244.873,51.3433 246.207,51.51 247.5,52C 248.665,54.732 249.998,57.232 251.5,59.5C 253.226,61.8201 253.893,64.4867 253.5,67.5C 252.611,69.0252 253.278,70.0252 255.5,70.5C 256.043,75.4702 256.71,80.1369 257.5,84.5C 258.833,86.1667 258.833,87.8333 257.5,89.5C 255.738,91.4167 253.571,92.75 251,93.5C 248.83,92.2799 246.663,92.2799 244.5,93.5C 242.5,93.5 240.5,93.5 238.5,93.5C 238.5,94.5 238.5,95.5 238.5,96.5C 237.054,97.6129 235.387,97.7796 233.5,97C 195.486,80.4372 157.486,80.4372 119.5,97C 117.402,97.6776 115.402,97.5109 113.5,96.5C 112.448,94.744 110.781,94.0773 108.5,94.5C 107.295,92.8624 105.962,92.5291 104.5,93.5C 102.833,94.8333 101.167,94.8333 99.5,93.5C 98.5,91.8333 97.1667,90.5 95.5,89.5C 94.1667,87.8333 94.1667,86.1667 95.5,84.5C 96.29,80.1369 96.9566,75.4702 97.5,70.5C 98.1667,69.5 98.8333,68.5 99.5,67.5C 99.5,65.5 99.5,63.5 99.5,61.5C 100.708,60.7659 102.041,60.4326 103.5,60.5C 103.065,57.1625 103.732,54.1625 105.5,51.5C 106.833,51.5 108.167,51.5 109.5,51.5C 108.833,46.1667 111.167,43.8333 116.5,44.5C 116.5,43.5 116.5,42.5 116.5,41.5C 119.255,40.043 122.255,39.043 125.5,38.5C 126.193,37.4822 126.859,36.4822 127.5,35.5C 128.833,34.1667 130.167,34.1667 131.5,35.5C 131.866,36.6946 132.699,37.3613 134,37.5C 135.766,36.7665 137.599,36.4332 139.5,36.5C 139.34,34.8008 139.506,33.1341 140,31.5C 142.425,30.3574 144.592,29.024 146.5,27.5C 150.05,25.4603 153.717,23.627 157.5,22C 159.568,21.3131 161.568,21.4798 163.5,22.5C 164.298,22.0431 164.631,21.3764 164.5,20.5C 170.635,21.0125 173.968,18.3458 174.5,12.5C 173.5,12.5 172.5,12.5 171.5,12.5C 171.5,11.5 171.5,10.5 171.5,9.5C 172.5,9.5 173.5,9.5 174.5,9.5C 174.5,8.16667 174.5,6.83333 174.5,5.5C 175.833,5.5 177.167,5.5 178.5,5.5C 178.5,6.83333 178.5,8.16667 178.5,9.5C 179.833,9.5 181.167,9.5 182.5,9.5C 182.5,10.5 182.5,11.5 182.5,12.5C 181.167,12.5 179.833,12.5 178.5,12.5C 179.032,18.3458 182.365,21.0125 188.5,20.5 Z M 146.5,49.5 C 145.508,49.3284 144.842,49.6618 144.5,50.5C 143.761,50.631 143.094,50.4643 142.5,50C 143.582,48.6703 144.249,47.1703 144.5,45.5C 146.262,44.7377 147.262,43.4044 147.5,41.5C 148.5,41.1667 149.167,40.5 149.5,39.5C 151.404,39.2624 152.738,38.2624 153.5,36.5C 159.204,33.9077 165.204,32.5744 171.5,32.5C 171.5,37.1667 171.5,41.8333 171.5,46.5C 165.824,46.3339 160.157,46.5006 154.5,47C 151.621,47.546 148.954,48.3794 146.5,49.5 Z M 192.5,33.5 C 194.649,34.7362 196.982,35.7362 199.5,36.5C 200.262,38.2624 201.596,39.2624 203.5,39.5C 203.833,40.5 204.5,41.1667 205.5,41.5C 205.738,43.4044 206.738,44.7377 208.5,45.5C 208.751,47.1703 209.418,48.6703 210.5,50C 209.906,50.4643 209.239,50.631 208.5,50.5C 206.898,48.9261 204.898,48.2594 202.5,48.5C 201.432,47.5655 200.099,47.2322 198.5,47.5C 193.025,46.5111 187.358,46.1778 181.5,46.5C 181.5,41.8333 181.5,37.1667 181.5,32.5C 185.198,32.5524 188.865,32.8857 192.5,33.5 Z M 125.5,50.5 C 126.5,50.5 127.5,50.5 128.5,50.5C 128.5,50.8333 128.5,51.1667 128.5,51.5C 127.833,53.1667 127.167,54.8333 126.5,56.5C 125.071,58.6905 123.071,60.0238 120.5,60.5C 118.447,60.4021 116.78,61.0687 115.5,62.5C 114.508,62.6716 113.842,62.3382 113.5,61.5C 114.906,61.0269 115.573,60.0269 115.5,58.5C 116.167,58.5 116.5,58.1667 116.5,57.5C 117.5,57.1667 118.167,56.5 118.5,55.5C 119.167,55.5 119.5,55.1667 119.5,54.5C 121.027,54.573 122.027,53.9063 122.5,52.5C 124.027,52.573 125.027,51.9063 125.5,50.5 Z M 227.5,50.5 C 227.973,51.9063 228.973,52.573 230.5,52.5C 230.973,53.9063 231.973,54.573 233.5,54.5C 234.5,56.1667 235.833,57.5 237.5,58.5C 237.427,60.0269 238.094,61.0269 239.5,61.5C 239.158,62.3382 238.492,62.6716 237.5,62.5C 234.916,60.5275 231.916,59.5275 228.5,59.5C 228.068,58.2905 227.401,57.2905 226.5,56.5C 225.37,54.6854 224.704,52.6854 224.5,50.5C 225.5,50.5 226.5,50.5 227.5,50.5 Z"/></g>
<g><path style="opacity:1" fill="#225797" d="M 188.5,20.5 C 182.365,21.0125 179.032,18.3458 178.5,12.5C 179.833,12.5 181.167,12.5 182.5,12.5C 182.5,11.5 182.5,10.5 182.5,9.5C 181.167,9.5 179.833,9.5 178.5,9.5C 178.5,8.16667 178.5,6.83333 178.5,5.5C 177.167,5.5 175.833,5.5 174.5,5.5C 174.5,6.83333 174.5,8.16667 174.5,9.5C 173.5,9.5 172.5,9.5 171.5,9.5C 171.5,10.5 171.5,11.5 171.5,12.5C 172.5,12.5 173.5,12.5 174.5,12.5C 173.968,18.3458 170.635,21.0125 164.5,20.5C 166.993,19.0414 169.659,17.7081 172.5,16.5C 173.386,15.675 173.719,14.675 173.5,13.5C 172.167,13.5 170.833,13.5 169.5,13.5C 169.5,11.8333 169.5,10.1667 169.5,8.5C 170.833,8.5 172.167,8.5 173.5,8.5C 173.5,7.16667 173.5,5.83333 173.5,4.5C 175.5,4.5 177.5,4.5 179.5,4.5C 179.5,5.83333 179.5,7.16667 179.5,8.5C 180.833,8.5 182.167,8.5 183.5,8.5C 183.5,10.1667 183.5,11.8333 183.5,13.5C 182.167,13.5 180.833,13.5 179.5,13.5C 179.281,14.675 179.614,15.675 180.5,16.5C 183.341,17.7081 186.007,19.0414 188.5,20.5 Z"/></g>
<g><path style="opacity:1" fill="#39608b" d="M 204.5,24.5 C 202.143,24.6633 199.81,24.4966 197.5,24C 195.261,21.3859 192.595,20.8859 189.5,22.5C 188.702,22.0431 188.369,21.3764 188.5,20.5C 192.822,18.8144 196.488,19.8144 199.5,23.5C 201.467,22.3162 203.134,22.6495 204.5,24.5 Z"/></g>
<g><path style="opacity:1" fill="#d1dce1" d="M 166.5,21.5 C 171.159,21.0146 172.492,22.848 170.5,27C 165.728,27.8104 164.395,25.9771 166.5,21.5 Z"/></g>
<g><path style="opacity:1" fill="#cfdae0" d="M 182.5,21.5 C 187.159,21.0146 188.492,22.848 186.5,27C 181.728,27.8104 180.395,25.9771 182.5,21.5 Z"/></g>
<g><path style="opacity:1" fill="#396288" d="M 164.5,20.5 C 164.631,21.3764 164.298,22.0431 163.5,22.5C 161.568,21.4798 159.568,21.3131 157.5,22C 153.717,23.627 150.05,25.4603 146.5,27.5C 147.68,23.9013 150.013,22.568 153.5,23.5C 156.687,20.208 160.353,19.208 164.5,20.5 Z"/></g>
<g><path style="opacity:1" fill="#cfd4c7" d="M 158.5,22.5 C 163.493,22.997 164.493,25.1637 161.5,29C 156.382,28.8242 155.382,26.6576 158.5,22.5 Z"/></g>
<g><path style="opacity:1" fill="#cdd3c8" d="M 191.5,22.5 C 196.493,22.997 197.493,25.1637 194.5,29C 189.382,28.8242 188.382,26.6576 191.5,22.5 Z"/></g>
<g><path style="opacity:1" fill="#d1d9d9" d="M 150.5,25.5 C 153.243,25.0772 154.576,26.2439 154.5,29C 152.551,33.6345 150.551,33.6345 148.5,29C 148.978,27.6974 149.645,26.5307 150.5,25.5 Z"/></g>
<g><path style="opacity:1" fill="#d2dbd9" d="M 199.5,25.5 C 205.076,26.5554 205.743,28.8888 201.5,32.5C 198.452,30.8751 197.785,28.5418 199.5,25.5 Z"/></g>
<g><path style="opacity:1" fill="#405f8c" d="M 204.5,24.5 C 205.837,25.3149 206.837,26.4815 207.5,28C 212.596,27.9296 215.262,30.4296 215.5,35.5C 217.611,36.3799 219.611,36.3799 221.5,35.5C 221.134,36.6946 220.301,37.3613 219,37.5C 217.234,36.7665 215.401,36.4332 213.5,36.5C 214,30.6706 211.334,28.3373 205.5,29.5C 205.371,27.7839 205.038,26.1172 204.5,24.5 Z"/></g>
<g><path style="opacity:1" fill="#d2dde4" d="M 179.5,34.5 C 177.5,35.8333 175.5,35.8333 173.5,34.5C 173.015,29.8415 174.848,28.5081 179,30.5C 179.49,31.7932 179.657,33.1266 179.5,34.5 Z"/></g>
<g><path style="opacity:1" fill="#d4dddd" d="M 142.5,30.5 C 146.184,31.372 147.184,33.5386 145.5,37C 140.382,36.8242 139.382,34.6576 142.5,30.5 Z"/></g>
<g><path style="opacity:1" fill="#d7e0e2" d="M 206.5,31.5 C 208.199,31.3398 209.866,31.5065 211.5,32C 212.813,35.692 211.48,37.3587 207.5,37C 206.594,35.3005 206.261,33.4672 206.5,31.5 Z"/></g>
<g><path style="opacity:1" fill="#4b558b" d="M 173.5,34.5 C 173.5,36.1667 173.5,37.8333 173.5,39.5C 173.731,44.0079 173.397,48.6746 172.5,53.5C 171.539,51.7354 171.205,49.7354 171.5,47.5C 163.072,47.2139 154.738,47.8806 146.5,49.5C 148.954,48.3794 151.621,47.546 154.5,47C 160.157,46.5006 165.824,46.3339 171.5,46.5C 171.5,41.8333 171.5,37.1667 171.5,32.5C 165.204,32.5744 159.204,33.9077 153.5,36.5C 159.005,32.2289 165.338,30.5622 172.5,31.5C 172.263,32.791 172.596,33.791 173.5,34.5 Z"/></g>
<g><path style="opacity:1" fill="#385e8e" d="M 146.5,27.5 C 144.592,29.024 142.425,30.3574 140,31.5C 139.506,33.1341 139.34,34.8008 139.5,36.5C 137.599,36.4332 135.766,36.7665 134,37.5C 132.699,37.3613 131.866,36.6946 131.5,35.5C 133.389,36.3799 135.389,36.3799 137.5,35.5C 137.977,30.0246 140.977,27.3579 146.5,27.5 Z"/></g>
<g><path style="opacity:1" fill="#135599" d="M 153.5,36.5 C 152.738,38.2624 151.404,39.2624 149.5,39.5C 150.262,37.7376 151.596,36.7376 153.5,36.5 Z"/></g>
<g><path style="opacity:1" fill="#285d90" d="M 199.5,36.5 C 201.404,36.7376 202.738,37.7376 203.5,39.5C 201.596,39.2624 200.262,38.2624 199.5,36.5 Z"/></g>
<g><path style="opacity:1" fill="#195699" d="M 225.5,35.5 C 228.132,36.7507 230.799,37.7507 233.5,38.5C 231.856,38.2865 230.356,38.6198 229,39.5C 227.624,38.2949 226.458,36.9616 225.5,35.5 Z"/></g>
<g><path style="opacity:1" fill="#506880" d="M 127.5,35.5 C 126.859,36.4822 126.193,37.4822 125.5,38.5C 122.255,39.043 119.255,40.043 116.5,41.5C 117.895,37.8888 120.395,36.8888 124,38.5C 124.422,36.5743 125.589,35.5743 127.5,35.5 Z"/></g>
<g><path style="opacity:1" fill="#d3dee3" d="M 127.5,37.5 C 132.159,37.0146 133.492,38.848 131.5,43C 126.728,43.8104 125.395,41.9771 127.5,37.5 Z"/></g>
<g><path style="opacity:1" fill="#d3dcdc" d="M 136.5,37.5 C 140.184,38.372 141.184,40.5386 139.5,44C 134.382,43.8242 133.382,41.6576 136.5,37.5 Z"/></g>
<g><path style="opacity:1" fill="#d7dfe1" d="M 212.5,38.5 C 214.199,38.3398 215.866,38.5065 217.5,39C 218.813,42.692 217.48,44.3587 213.5,44C 212.594,42.3005 212.261,40.4672 212.5,38.5 Z"/></g>
<g><path style="opacity:1" fill="#d3dee3" d="M 221.5,37.5 C 226.159,37.0146 227.492,38.848 225.5,43C 220.728,43.8104 219.395,41.9771 221.5,37.5 Z"/></g>
<g><path style="opacity:1" fill="#2d5b91" d="M 233.5,38.5 C 235.5,38.5 236.5,39.5 236.5,41.5C 235.167,40.8333 234.167,39.8333 233.5,38.5 Z"/></g>
<g><path style="opacity:1" fill="#d3dbda" d="M 173.5,39.5 C 177.591,37.7925 179.424,39.1258 179,43.5C 178.163,45.0074 176.996,45.5074 175.5,45C 173.845,43.5557 173.178,41.7224 173.5,39.5 Z"/></g>
<g><path style="opacity:1" fill="#d0dbe0" d="M 119.5,40.5 C 124.159,40.0146 125.492,41.848 123.5,46C 118.728,46.8104 117.395,44.9771 119.5,40.5 Z"/></g>
<g><path style="opacity:1" fill="#d6dfe4" d="M 229.5,40.5 C 234.159,40.0146 235.492,41.848 233.5,46C 228.728,46.8104 227.395,44.9771 229.5,40.5 Z"/></g>
<g><path style="opacity:1" fill="#235994" d="M 205.5,41.5 C 207.262,42.2623 208.262,43.5956 208.5,45.5C 206.738,44.7377 205.738,43.4044 205.5,41.5 Z"/></g>
<g><path style="opacity:1" fill="#245994" d="M 116.5,41.5 C 116.5,42.5 116.5,43.5 116.5,44.5C 111.167,43.8333 108.833,46.1667 109.5,51.5C 108.167,51.5 106.833,51.5 105.5,51.5C 107.434,49.2405 109.101,46.7405 110.5,44C 112.845,43.7635 114.845,42.9302 116.5,41.5 Z"/></g>
<g><path style="opacity:1" fill="#245995" d="M 147.5,41.5 C 147.262,43.4044 146.262,44.7377 144.5,45.5C 144.738,43.5956 145.738,42.2623 147.5,41.5 Z"/></g>
<g><path style="opacity:1" fill="#3b5f8d" d="M 236.5,41.5 C 238.155,42.9302 240.155,43.7635 242.5,44C 243.966,45.5522 244.966,47.3855 245.5,49.5C 250.158,51.5103 252.158,54.8436 251.5,59.5C 249.998,57.232 248.665,54.732 247.5,52C 246.207,51.51 244.873,51.3433 243.5,51.5C 244.167,46.1667 241.833,43.8333 236.5,44.5C 236.5,43.5 236.5,42.5 236.5,41.5 Z"/></g>
<g><path style="opacity:1" fill="#d1d6cc" d="M 112.5,45.5 C 117.493,45.997 118.493,48.1637 115.5,52C 110.382,51.8242 109.382,49.6576 112.5,45.5 Z"/></g>
<g><path style="opacity:1" fill="#3f528d" d="M 192.5,33.5 C 188.865,32.8857 185.198,32.5524 181.5,32.5C 181.5,37.1667 181.5,41.8333 181.5,46.5C 187.358,46.1778 193.025,46.5111 198.5,47.5C 192.833,47.5 187.167,47.5 181.5,47.5C 181.795,49.7354 181.461,51.7354 180.5,53.5C 180.293,47.1777 179.96,40.8444 179.5,34.5C 180.404,33.791 180.737,32.791 180.5,31.5C 183.85,31.335 187.183,31.5017 190.5,32C 191.416,32.2784 192.082,32.7784 192.5,33.5 Z"/></g>
<g><path style="opacity:1" fill="#cfd5cb" d="M 237.5,45.5 C 242.493,45.997 243.493,48.1637 240.5,52C 235.382,51.8242 234.382,49.6576 237.5,45.5 Z"/></g>
<g><path style="opacity:1" fill="#d4dee1" d="M 131.5,46.5 C 136.159,46.0146 137.492,47.848 135.5,52C 130.728,52.8104 129.395,50.9771 131.5,46.5 Z"/></g>
<g><path style="opacity:1" fill="#e63651" d="M 172.5,53.5 C 172.443,54.609 172.11,55.609 171.5,56.5C 171.672,57.4916 171.338,58.1583 170.5,58.5C 165.739,60.6162 164.239,64.2829 166,69.5C 166.383,70.056 166.883,70.3893 167.5,70.5C 169.229,71.2362 170.229,72.5695 170.5,74.5C 168.883,75.038 167.216,75.3713 165.5,75.5C 164.508,75.6716 163.842,75.3382 163.5,74.5C 163.829,71.7718 163.163,69.4385 161.5,67.5C 160.833,67.5 160.5,67.1667 160.5,66.5C 158.372,65.3709 156.039,65.2042 153.5,66C 152.748,66.6708 152.414,67.5041 152.5,68.5C 152.664,71.1873 152.497,73.854 152,76.5C 151.617,77.056 151.117,77.3893 150.5,77.5C 148.097,77.552 145.764,77.2186 143.5,76.5C 142.957,76.44 142.624,76.1067 142.5,75.5C 144.319,74.6801 145.986,73.6801 147.5,72.5C 148.147,71.7261 148.48,70.7261 148.5,69.5C 148.66,67.6455 147.993,66.3121 146.5,65.5C 144.887,64.3077 143.22,63.3077 141.5,62.5C 139.528,57.6038 140.528,53.6038 144.5,50.5C 144.842,49.6618 145.508,49.3284 146.5,49.5C 154.738,47.8806 163.072,47.2139 171.5,47.5C 171.205,49.7354 171.539,51.7354 172.5,53.5 Z"/></g>
<g><path style="opacity:1" fill="#e23852" d="M 198.5,47.5 C 200.099,47.2322 201.432,47.5655 202.5,48.5C 204.214,49.7384 206.214,50.405 208.5,50.5C 211.64,52.9612 213.307,56.2946 213.5,60.5C 211.165,62.3724 208.665,64.039 206,65.5C 205.068,68.8231 205.568,71.8231 207.5,74.5C 208.167,75.1667 208.833,75.8333 209.5,76.5C 209.5,77.1667 209.167,77.5 208.5,77.5C 206.097,77.552 203.764,77.2186 201.5,76.5C 200.683,74.0314 200.183,71.3647 200,68.5C 197.865,66.7215 195.365,66.0548 192.5,66.5C 190.018,68.5027 189.018,71.1694 189.5,74.5C 189.158,75.3382 188.492,75.6716 187.5,75.5C 185.315,75.2964 183.315,74.6298 181.5,73.5C 180.957,73.44 180.624,73.1067 180.5,72.5C 182.518,71.4912 184.518,70.4912 186.5,69.5C 188.754,64.5002 187.421,60.8335 182.5,58.5C 181.36,57.1986 180.027,56.0319 178.5,55C 179.044,54.2828 179.711,53.7828 180.5,53.5C 181.461,51.7354 181.795,49.7354 181.5,47.5C 187.167,47.5 192.833,47.5 198.5,47.5 Z"/></g>
<g><path style="opacity:1" fill="#d7dfe1" d="M 217.5,46.5 C 222.159,46.0146 223.492,47.848 221.5,52C 216.728,52.8104 215.395,50.9771 217.5,46.5 Z"/></g>
<g><path style="opacity:1" fill="#d3dcdf" d="M 173.5,53.5 C 172.889,49.9711 174.223,48.1378 177.5,48C 180.259,50.5738 179.926,52.7405 176.5,54.5C 175.583,53.8728 174.583,53.5394 173.5,53.5 Z"/></g>
<g><path style="opacity:1" fill="#4f4b8c" d="M 202.5,48.5 C 204.898,48.2594 206.898,48.9261 208.5,50.5C 206.214,50.405 204.214,49.7384 202.5,48.5 Z"/></g>
<g><path style="opacity:1" fill="#0f5699" d="M 128.5,50.5 C 127.5,50.5 126.5,50.5 125.5,50.5C 127.043,48.4433 128.043,48.4433 128.5,50.5 Z"/></g>
<g><path style="opacity:1" fill="#525885" d="M 208.5,45.5 C 211.399,49.4759 213.399,53.9759 214.5,59C 214.43,59.7648 214.097,60.2648 213.5,60.5C 213.307,56.2946 211.64,52.9612 208.5,50.5C 209.239,50.631 209.906,50.4643 210.5,50C 209.418,48.6703 208.751,47.1703 208.5,45.5 Z"/></g>
<g><path style="opacity:1" fill="#15549b" d="M 125.5,50.5 C 125.027,51.9063 124.027,52.573 122.5,52.5C 122.973,51.0937 123.973,50.427 125.5,50.5 Z"/></g>
<g><path style="opacity:1" fill="#385e8e" d="M 227.5,50.5 C 226.5,50.5 225.5,50.5 224.5,50.5C 224.704,52.6854 225.37,54.6854 226.5,56.5C 222.049,54.7321 221.382,52.0654 224.5,48.5C 225.739,48.9424 226.739,49.6091 227.5,50.5 Z"/></g>
<g><path style="opacity:1" fill="#205797" d="M 227.5,50.5 C 229.027,50.427 230.027,51.0937 230.5,52.5C 228.973,52.573 227.973,51.9063 227.5,50.5 Z"/></g>
<g><path style="opacity:1" fill="#64567e" d="M 144.5,45.5 C 144.249,47.1703 143.582,48.6703 142.5,50C 143.094,50.4643 143.761,50.631 144.5,50.5C 140.528,53.6038 139.528,57.6038 141.5,62.5C 139.978,61.8091 138.978,60.6424 138.5,59C 139.601,53.9759 141.601,49.4759 144.5,45.5 Z"/></g>
<g><path style="opacity:1" fill="#10559a" d="M 122.5,52.5 C 122.027,53.9063 121.027,54.573 119.5,54.5C 119.973,53.0937 120.973,52.427 122.5,52.5 Z"/></g>
<g><path style="opacity:1" fill="#255c91" d="M 128.5,51.5 C 129.289,51.7828 129.956,52.2828 130.5,53C 129.295,54.3756 127.962,55.5423 126.5,56.5C 127.167,54.8333 127.833,53.1667 128.5,51.5 Z"/></g>
<g><path style="opacity:1" fill="#225a93" d="M 230.5,52.5 C 232.027,52.427 233.027,53.0937 233.5,54.5C 231.973,54.573 230.973,53.9063 230.5,52.5 Z"/></g>
<g><path style="opacity:1" fill="#d6e0e7" d="M 105.5,53.5 C 110.159,53.0146 111.492,54.848 109.5,59C 105.266,59.267 103.933,57.4336 105.5,53.5 Z"/></g>
<g><path style="opacity:1" fill="#d8e1e7" d="M 243.5,53.5 C 248.587,53.2845 249.587,55.1178 246.5,59C 242.537,59.1177 241.537,57.2843 243.5,53.5 Z"/></g>
<g><path style="opacity:1" fill="#5b6a7f" d="M 105.5,51.5 C 103.732,54.1625 103.065,57.1625 103.5,60.5C 102.041,60.4326 100.708,60.7659 99.5,61.5C 99.9371,59.9256 100.937,58.7589 102.5,58C 101.192,54.782 102.192,52.6153 105.5,51.5 Z"/></g>
<g><path style="opacity:1" fill="#345b91" d="M 118.5,55.5 C 118.167,56.5 117.5,57.1667 116.5,57.5C 116.5,56.1667 117.167,55.5 118.5,55.5 Z"/></g>
<g><path style="opacity:1" fill="#685b78" d="M 172.5,53.5 C 172.833,53.5 173.167,53.5 173.5,53.5C 174.674,55.3678 174.007,56.3678 171.5,56.5C 172.11,55.609 172.443,54.609 172.5,53.5 Z"/></g>
<g><path style="opacity:1" fill="#d2dee4" d="M 129.5,55.5 C 134.159,55.0146 135.492,56.848 133.5,61C 128.728,61.8104 127.395,59.9771 129.5,55.5 Z"/></g>
<g><path style="opacity:1" fill="#d2dde4" d="M 219.5,55.5 C 224.159,55.0146 225.492,56.848 223.5,61C 218.728,61.8104 217.395,59.9771 219.5,55.5 Z"/></g>
<g><path style="opacity:1" fill="#00519f" d="M 226.5,56.5 C 227.401,57.2905 228.068,58.2905 228.5,59.5C 227.833,59.5 227.167,59.5 226.5,59.5C 226.5,58.5 226.5,57.5 226.5,56.5 Z"/></g>
<g><path style="opacity:1" fill="#0c549b" d="M 115.5,58.5 C 115.573,60.0269 114.906,61.0269 113.5,61.5C 113.427,59.9731 114.094,58.9731 115.5,58.5 Z"/></g>
<g><path style="opacity:1" fill="#744982" d="M 126.5,56.5 C 126.5,57.8333 126.5,59.1667 126.5,60.5C 124.5,60.5 122.5,60.5 120.5,60.5C 123.071,60.0238 125.071,58.6905 126.5,56.5 Z"/></g>
<g><path style="opacity:1" fill="#616077" d="M 182.5,58.5 C 187.421,60.8335 188.754,64.5002 186.5,69.5C 186.663,67.1432 186.497,64.8098 186,62.5C 184.373,61.4677 183.207,60.1344 182.5,58.5 Z"/></g>
<g><path style="opacity:1" fill="#175797" d="M 237.5,58.5 C 238.906,58.9731 239.573,59.9731 239.5,61.5C 238.094,61.0269 237.427,60.0269 237.5,58.5 Z"/></g>
<g><path style="opacity:1" fill="#db3c55" d="M 120.5,60.5 C 122.5,60.5 124.5,60.5 126.5,60.5C 127.833,61.1667 128.833,62.1667 129.5,63.5C 126.539,67.2083 125.873,71.2083 127.5,75.5C 128.5,75.8333 129.167,76.5 129.5,77.5C 130.718,78.1614 132.051,78.8281 133.5,79.5C 132.807,80.5178 132.141,81.5178 131.5,82.5C 130.167,83.8333 128.833,83.8333 127.5,82.5C 126.488,81.1283 125.488,79.795 124.5,78.5C 116.387,74.2731 113.721,76.6065 116.5,85.5C 116.439,87.6528 115.439,88.9862 113.5,89.5C 112.508,89.6716 111.842,89.3382 111.5,88.5C 112.886,85.3186 112.552,82.3186 110.5,79.5C 109.436,75.5591 109.436,71.5591 110.5,67.5C 111.833,65.5 113.5,63.8333 115.5,62.5C 116.78,61.0687 118.447,60.4021 120.5,60.5 Z"/></g>
<g><path style="opacity:1" fill="#e5ebec" d="M 173.5,59.5 C 181.486,58.998 183.486,62.1647 179.5,69C 171.424,69.8047 169.424,66.638 173.5,59.5 Z"/></g>
<g><path style="opacity:1" fill="#d73d57" d="M 226.5,59.5 C 227.167,59.5 227.833,59.5 228.5,59.5C 231.916,59.5275 234.916,60.5275 237.5,62.5C 239.5,63.8333 241.167,65.5 242.5,67.5C 243.434,68.5676 243.768,69.901 243.5,71.5C 243.721,74.2788 243.388,76.9455 242.5,79.5C 240.448,82.3186 240.114,85.3186 241.5,88.5C 241.158,89.3382 240.492,89.6716 239.5,89.5C 237.561,88.9862 236.561,87.6528 236.5,85.5C 238.63,77.2877 235.963,74.9544 228.5,78.5C 227.512,79.795 226.512,81.1283 225.5,82.5C 224.399,83.5983 223.066,83.765 221.5,83C 220.244,82.5831 219.577,81.7498 219.5,80.5C 220.448,79.0221 221.781,78.0221 223.5,77.5C 223.833,76.5 224.5,75.8333 225.5,75.5C 227.127,71.2083 226.461,67.2083 223.5,63.5C 224.5,62.1667 225.5,60.8333 226.5,59.5 Z"/></g>
<g><path style="opacity:1" fill="#40558d" d="M 113.5,61.5 C 113.842,62.3382 114.508,62.6716 115.5,62.5C 113.5,63.8333 111.833,65.5 110.5,67.5C 110.461,64.911 111.461,62.911 113.5,61.5 Z"/></g>
<g><path style="opacity:1" fill="#44568c" d="M 239.5,61.5 C 241.539,62.911 242.539,64.911 242.5,67.5C 241.167,65.5 239.5,63.8333 237.5,62.5C 238.492,62.6716 239.158,62.3382 239.5,61.5 Z"/></g>
<g><path style="opacity:1" fill="#d2dcdf" d="M 101.5,61.5 C 105.029,60.8894 106.862,62.2227 107,65.5C 104.426,68.2594 102.26,67.926 100.5,64.5C 101.127,63.5832 101.461,62.5832 101.5,61.5 Z"/></g>
<g><path style="opacity:1" fill="#d4ddde" d="M 247.5,61.5 C 252.158,61.653 253.158,63.4863 250.5,67C 245.722,67.0734 244.722,65.2401 247.5,61.5 Z"/></g>
<g><path style="opacity:1" fill="#2c5f8d" d="M 99.5,61.5 C 99.5,63.5 99.5,65.5 99.5,67.5C 96.8333,65.5 96.8333,63.5 99.5,61.5 Z"/></g>
<g><path style="opacity:1" fill="#586478" d="M 170.5,58.5 C 169.793,60.1344 168.627,61.4677 167,62.5C 166.398,65.2205 166.565,67.8872 167.5,70.5C 166.883,70.3893 166.383,70.056 166,69.5C 164.239,64.2829 165.739,60.6162 170.5,58.5 Z"/></g>
<g><path style="opacity:1" fill="#285c90" d="M 251.5,59.5 C 252.496,59.4142 253.329,59.7476 254,60.5C 256.048,63.1427 255.881,65.476 253.5,67.5C 253.893,64.4867 253.226,61.8201 251.5,59.5 Z"/></g>
<g><path style="opacity:1" fill="#e2e8e9" d="M 134.5,64.5 C 139.835,64.005 142.335,66.3384 142,71.5C 138.667,75.5 135.333,75.5 132,71.5C 131.333,70.1667 131.333,68.8333 132,67.5C 133.045,66.6266 133.878,65.6266 134.5,64.5 Z"/></g>
<g><path style="opacity:1" fill="#e2e8e9" d="M 213.5,64.5 C 218.835,64.005 221.335,66.3384 221,71.5C 217.667,75.5 214.333,75.5 211,71.5C 210.333,70.1667 210.333,68.8333 211,67.5C 212.045,66.6266 212.878,65.6266 213.5,64.5 Z"/></g>
<g><path style="opacity:1" fill="#706171" d="M 223.5,63.5 C 226.461,67.2083 227.127,71.2083 225.5,75.5C 226.1,71.4649 225.1,67.9649 222.5,65C 222.57,64.2352 222.903,63.7352 223.5,63.5 Z"/></g>
<g><path style="opacity:1" fill="#646871" d="M 160.5,66.5 C 157.487,66.1072 154.82,66.7739 152.5,68.5C 152.414,67.5041 152.748,66.6708 153.5,66C 156.039,65.2042 158.372,65.3709 160.5,66.5 Z"/></g>
<g><path style="opacity:1" fill="#6f6470" d="M 129.5,63.5 C 130.801,65.456 130.301,67.1226 128,68.5C 127.503,70.8098 127.337,73.1432 127.5,75.5C 125.873,71.2083 126.539,67.2083 129.5,63.5 Z"/></g>
<g><path style="opacity:1" fill="#5d4b80" d="M 146.5,65.5 C 147.993,66.3121 148.66,67.6455 148.5,69.5C 148.48,70.7261 148.147,71.7261 147.5,72.5C 147.552,70.0971 147.219,67.7638 146.5,65.5 Z"/></g>
<g><path style="opacity:1" fill="#2e5b92" d="M 253.5,67.5 C 254.551,68.2223 255.218,69.2223 255.5,70.5C 253.278,70.0252 252.611,69.0252 253.5,67.5 Z"/></g>
<g><path style="opacity:1" fill="#7f6f66" d="M 192.5,66.5 C 191.94,68.8008 191.44,71.1341 191,73.5C 190.617,74.056 190.117,74.3893 189.5,74.5C 189.018,71.1694 190.018,68.5027 192.5,66.5 Z"/></g>
<g><path style="opacity:1" fill="#885c6a" d="M 161.5,67.5 C 163.163,69.4385 163.829,71.7718 163.5,74.5C 162.883,74.3893 162.383,74.056 162,73.5C 161.505,71.5273 161.338,69.5273 161.5,67.5 Z"/></g>
<g><path style="opacity:1" fill="#d4dddf" d="M 99.5,70.5 C 104.159,70.0146 105.492,71.848 103.5,76C 98.7282,76.8104 97.3948,74.9771 99.5,70.5 Z"/></g>
<g><path style="opacity:1" fill="#81606f" d="M 167.5,70.5 C 169.167,70.5 170.833,70.5 172.5,70.5C 172.771,72.3797 172.104,73.713 170.5,74.5C 170.229,72.5695 169.229,71.2362 167.5,70.5 Z"/></g>
<g><path style="opacity:1" fill="#d5dddd" d="M 249.5,70.5 C 254.159,70.0146 255.492,71.848 253.5,76C 248.221,76.5848 246.888,74.7514 249.5,70.5 Z"/></g>
<g><path style="opacity:1" fill="#58617b" d="M 110.5,67.5 C 109.436,71.5591 109.436,75.5591 110.5,79.5C 109.235,78.4855 108.569,76.9855 108.5,75C 108.408,72.1789 109.074,69.6789 110.5,67.5 Z"/></g>
<g><path style="opacity:1" fill="#58607a" d="M 177.5,75.5 C 176.833,75.5 176.167,75.5 175.5,75.5C 176.167,71.5 176.833,71.5 177.5,75.5 Z"/></g>
<g><path style="opacity:1" fill="#4f5384" d="M 159.5,76.5 C 158.391,76.5569 157.391,76.8902 156.5,77.5C 157.053,75.4482 158.053,75.1148 159.5,76.5 Z"/></g>
<g><path style="opacity:1" fill="#556b77" d="M 170.5,74.5 C 169.121,76.5969 167.455,76.9302 165.5,75.5C 167.216,75.3713 168.883,75.038 170.5,74.5 Z"/></g>
<g><path style="opacity:1" fill="#6a6772" d="M 181.5,73.5 C 183.315,74.6298 185.315,75.2964 187.5,75.5C 184.92,77.0156 182.92,76.3489 181.5,73.5 Z"/></g>
<g><path style="opacity:1" fill="#4e667a" d="M 207.5,74.5 C 208.675,74.281 209.675,74.6143 210.5,75.5C 210.376,76.1067 210.043,76.44 209.5,76.5C 208.833,75.8333 208.167,75.1667 207.5,74.5 Z"/></g>
<g><path style="opacity:1" fill="#4e5a80" d="M 243.5,71.5 C 244.156,72.6216 244.489,73.9549 244.5,75.5C 244.415,77.3328 243.748,78.6661 242.5,79.5C 243.388,76.9455 243.721,74.2788 243.5,71.5 Z"/></g>
<g><path style="opacity:1" fill="#c4425c" d="M 159.5,76.5 C 160.5,76.8333 161.167,77.5 161.5,78.5C 160.167,79.1667 158.833,79.8333 157.5,80.5C 156.833,80.5 156.167,80.5 155.5,80.5C 154.833,80.5 154.5,80.1667 154.5,79.5C 154.833,78.5 155.5,77.8333 156.5,77.5C 157.391,76.8902 158.391,76.5569 159.5,76.5 Z"/></g>
<g><path style="opacity:1" fill="#eb324f" d="M 196.5,77.5 C 196.209,78.6491 195.376,79.3158 194,79.5C 192.93,79.472 192.097,79.1386 191.5,78.5C 193.017,78.4894 194.184,77.8228 195,76.5C 195.383,77.056 195.883,77.3893 196.5,77.5 Z"/></g>
<g><path style="opacity:1" fill="#3e5e8e" d="M 97.5,70.5 C 96.9566,75.4702 96.29,80.1369 95.5,84.5C 93.9786,81.2947 94.312,78.2947 96.5,75.5C 95.3162,73.533 95.6495,71.8664 97.5,70.5 Z"/></g>
<g><path style="opacity:1" fill="#63507d" d="M 143.5,76.5 C 145.764,77.2186 148.097,77.552 150.5,77.5C 149.726,78.1471 148.726,78.4805 147.5,78.5C 145.645,78.6598 144.312,77.9931 143.5,76.5 Z"/></g>
<g><path style="opacity:1" fill="#785076" d="M 196.5,77.5 C 195.883,77.3893 195.383,77.056 195,76.5C 194.184,77.8228 193.017,78.4894 191.5,78.5C 193.004,75.3033 194.67,74.97 196.5,77.5 Z"/></g>
<g><path style="opacity:1" fill="#5d507f" d="M 201.5,76.5 C 203.764,77.2186 206.097,77.552 208.5,77.5C 207.726,78.1471 206.726,78.4805 205.5,78.5C 203.645,78.6598 202.312,77.9931 201.5,76.5 Z"/></g>
<g><path style="opacity:1" fill="#584783" d="M 223.5,77.5 C 221.781,78.0221 220.448,79.0221 219.5,80.5C 218.596,79.791 218.263,78.791 218.5,77.5C 220.167,77.5 221.833,77.5 223.5,77.5 Z"/></g>
<g><path style="opacity:1" fill="#405e8e" d="M 255.5,70.5 C 256.391,71.2613 257.058,72.2613 257.5,73.5C 258.444,76.993 258.444,80.6596 257.5,84.5C 256.71,80.1369 256.043,75.4702 255.5,70.5 Z"/></g>
<g><path style="opacity:1" fill="#475188" d="M 140.5,79.5 C 139.833,79.8333 139.167,80.1667 138.5,80.5C 138.34,75.921 139.007,75.5877 140.5,79.5 Z"/></g>
<g><path style="opacity:1" fill="#5b4f82" d="M 175.5,75.5 C 174.113,78.3117 175.113,79.1451 178.5,78C 177.748,77.3292 177.414,76.4959 177.5,75.5C 182.974,78.6053 182.641,79.9386 176.5,79.5C 170.359,79.9386 170.026,78.6053 175.5,75.5 Z"/></g>
<g><path style="opacity:1" fill="#eb324f" d="M 175.5,75.5 C 176.167,75.5 176.833,75.5 177.5,75.5C 177.414,76.4959 177.748,77.3292 178.5,78C 175.113,79.1451 174.113,78.3117 175.5,75.5 Z"/></g>
<g><path style="opacity:1" fill="#5b5f78" d="M 124.5,78.5 C 125.488,79.795 126.488,81.1283 127.5,82.5C 125.088,82.3059 124.088,80.9726 124.5,78.5 Z"/></g>
<g><path style="opacity:1" fill="#445885" d="M 161.5,78.5 C 162.756,78.4614 163.756,78.9614 164.5,80C 162.19,80.4966 159.857,80.6633 157.5,80.5C 158.833,79.8333 160.167,79.1667 161.5,78.5 Z"/></g>
<g><path style="opacity:1" fill="#585c7d" d="M 196.5,77.5 C 197.962,78.4577 199.295,79.6244 200.5,81C 196.496,81.1445 192.496,80.8111 188.5,80C 189.244,78.9614 190.244,78.4614 191.5,78.5C 192.097,79.1386 192.93,79.472 194,79.5C 195.376,79.3158 196.209,78.6491 196.5,77.5 Z"/></g>
<g><path style="opacity:1" fill="#d43d57" d="M 140.5,79.5 C 141.5,79.8333 142.167,80.5 142.5,81.5C 141.833,82.1667 141.167,82.8333 140.5,83.5C 138.952,83.1788 138.285,82.1788 138.5,80.5C 139.167,80.1667 139.833,79.8333 140.5,79.5 Z"/></g>
<g><path style="opacity:1" fill="#2a6289" d="M 154.5,79.5 C 154.5,80.1667 154.833,80.5 155.5,80.5C 154.749,81.5735 153.749,81.7401 152.5,81C 153.044,80.2828 153.711,79.7828 154.5,79.5 Z"/></g>
<g><path style="opacity:1" fill="#814c76" d="M 214.5,80.5 C 213.167,80.8333 211.833,81.1667 210.5,81.5C 211.836,79.9897 213.003,78.3231 214,76.5C 214.49,77.7932 214.657,79.1266 214.5,80.5 Z"/></g>
<g><path style="opacity:1" fill="#e33451" d="M 214.5,80.5 C 214.5,81.5 214.5,82.5 214.5,83.5C 213.5,83.5 212.5,83.5 211.5,83.5C 211.167,82.8333 210.833,82.1667 210.5,81.5C 211.833,81.1667 213.167,80.8333 214.5,80.5 Z"/></g>
<g><path style="opacity:1" fill="#e1e7e8" d="M 100.5,80.5 C 104.925,79.7566 107.592,81.5899 108.5,86C 106.545,90.3579 103.379,91.5245 99,89.5C 96.7879,86.0213 97.2879,83.0213 100.5,80.5 Z"/></g>
<g><path style="opacity:1" fill="#625c77" d="M 129.5,77.5 C 131.167,77.5 132.833,77.5 134.5,77.5C 135.084,80.285 134.084,81.9517 131.5,82.5C 132.141,81.5178 132.807,80.5178 133.5,79.5C 132.051,78.8281 130.718,78.1614 129.5,77.5 Z"/></g>
<g><path style="opacity:1" fill="#626275" d="M 228.5,78.5 C 228.912,80.9726 227.912,82.3059 225.5,82.5C 226.512,81.1283 227.512,79.795 228.5,78.5 Z"/></g>
<g><path style="opacity:1" fill="#e1e7e8" d="M 247.5,80.5 C 254.745,80.5552 256.745,83.7218 253.5,90C 244.964,90.6585 242.964,87.4918 247.5,80.5 Z"/></g>
<g><path style="opacity:1" fill="#56607b" d="M 142.5,81.5 C 143.675,81.281 144.675,81.6143 145.5,82.5C 143.955,83.4519 142.288,83.7852 140.5,83.5C 141.167,82.8333 141.833,82.1667 142.5,81.5 Z"/></g>
<g><path style="opacity:1" fill="#50627c" d="M 210.5,81.5 C 210.833,82.1667 211.167,82.8333 211.5,83.5C 210.022,83.762 208.689,83.4287 207.5,82.5C 208.325,81.6143 209.325,81.281 210.5,81.5 Z"/></g>
<g><path style="opacity:1" fill="#61587b" d="M 138.5,80.5 C 138.285,82.1788 138.952,83.1788 140.5,83.5C 134.614,86.5417 133.947,85.5417 138.5,80.5 Z"/></g>
<g><path style="opacity:1" fill="#5e5c7b" d="M 214.5,80.5 C 218.764,85.8875 217.764,86.8875 211.5,83.5C 212.5,83.5 213.5,83.5 214.5,83.5C 214.5,82.5 214.5,81.5 214.5,80.5 Z"/></g>
<g><path style="opacity:1" fill="#cb415a" d="M 124.5,86.5 C 124.833,86.5 125.167,86.5 125.5,86.5C 125.5,87.1667 125.5,87.8333 125.5,88.5C 124.791,89.404 123.791,89.7373 122.5,89.5C 120.972,89.4827 120.472,88.816 121,87.5C 122.011,86.6634 123.178,86.33 124.5,86.5 Z"/></g>
<g><path style="opacity:1" fill="#f0b81f" d="M 233.5,101.5 C 230.916,102.048 229.916,103.715 230.5,106.5C 231.85,107.824 231.683,108.824 230,109.5C 227.953,108.391 225.787,107.724 223.5,107.5C 220.044,104.792 216.044,103.459 211.5,103.5C 207.924,101.272 203.924,100.272 199.5,100.5C 199.167,100.5 198.833,100.5 198.5,100.5C 194.796,98.9089 190.796,98.0756 186.5,98C 169.551,96.5655 153.218,98.7322 137.5,104.5C 136.791,105.404 135.791,105.737 134.5,105.5C 132.447,105.402 130.78,106.069 129.5,107.5C 127.213,107.724 125.047,108.391 123,109.5C 122.5,109.167 122,108.833 121.5,108.5C 122.246,107.264 122.579,105.93 122.5,104.5C 122.5,102.5 121.5,101.5 119.5,101.5C 119.082,100.778 118.416,100.278 117.5,100C 135.946,90.4756 155.612,85.9756 176.5,86.5C 197.379,85.9742 217.046,90.4742 235.5,100C 234.584,100.278 233.918,100.778 233.5,101.5 Z"/></g>
<g><path style="opacity:1" fill="#98506c" d="M 228.5,85.5 C 232.587,85.7291 234.254,87.7291 233.5,91.5C 230.333,90.2812 227.333,88.7812 224.5,87C 226.058,86.79 227.391,86.29 228.5,85.5 Z"/></g>
<g><path style="opacity:1" fill="#3b5987" d="M 125.5,86.5 C 128.167,87.1667 128.167,87.8333 125.5,88.5C 125.5,87.8333 125.5,87.1667 125.5,86.5 Z"/></g>
<g><path style="opacity:1" fill="#30508e" d="M 111.5,88.5 C 111.842,89.3382 112.508,89.6716 113.5,89.5C 112.399,90.5983 111.066,90.765 109.5,90C 110.044,89.2828 110.711,88.7828 111.5,88.5 Z"/></g>
<g><path style="opacity:1" fill="#5a5d7c" d="M 124.5,86.5 C 123.178,86.33 122.011,86.6634 121,87.5C 120.472,88.816 120.972,89.4827 122.5,89.5C 121.365,91.0878 120.031,91.4212 118.5,90.5C 118.856,86.0929 120.856,84.7595 124.5,86.5 Z"/></g>
<g><path style="opacity:1" fill="#304f8f" d="M 241.5,88.5 C 242.289,88.7828 242.956,89.2828 243.5,90C 241.934,90.765 240.601,90.5983 239.5,89.5C 240.492,89.6716 241.158,89.3382 241.5,88.5 Z"/></g>
<g><path style="opacity:1" fill="#285a93" d="M 95.5,89.5 C 97.1667,90.5 98.5,91.8333 99.5,93.5C 97.1667,93.1667 95.8333,91.8333 95.5,89.5 Z"/></g>
<g><path style="opacity:1" fill="#1f5a94" d="M 104.5,93.5 C 105.962,92.5291 107.295,92.8624 108.5,94.5C 107.041,94.5674 105.708,94.2341 104.5,93.5 Z"/></g>
<g><path style="opacity:1" fill="#215797" d="M 257.5,89.5 C 257.084,91.7525 255.751,93.2525 253.5,94C 250.356,93.905 247.356,94.0717 244.5,94.5C 244.5,94.1667 244.5,93.8333 244.5,93.5C 246.663,92.2799 248.83,92.2799 251,93.5C 253.571,92.75 255.738,91.4167 257.5,89.5 Z"/></g>
<g><path style="opacity:1" fill="#00519f" d="M 108.5,94.5 C 110.781,94.0773 112.448,94.744 113.5,96.5C 111.694,95.9759 110.028,95.3092 108.5,94.5 Z"/></g>
<g><path style="opacity:1" fill="#3e6288" d="M 238.5,96.5 C 238.833,96.5 239.167,96.5 239.5,96.5C 237.051,99.0636 235.385,102.064 234.5,105.5C 234.768,103.901 234.434,102.568 233.5,101.5C 233.918,100.778 234.584,100.278 235.5,100C 217.046,90.4742 197.379,85.9742 176.5,86.5C 155.612,85.9756 135.946,90.4756 117.5,100C 118.416,100.278 119.082,100.778 119.5,101.5C 118.566,102.568 118.232,103.901 118.5,105.5C 117.615,102.064 115.949,99.0636 113.5,96.5C 115.402,97.5109 117.402,97.6776 119.5,97C 157.486,80.4372 195.486,80.4372 233.5,97C 235.387,97.7796 237.054,97.6129 238.5,96.5 Z"/></g>
<g><path style="opacity:1" fill="#245797" d="M 201.5,92.5 C 204.85,92.335 208.183,92.5017 211.5,93C 213.657,94.9121 215.991,96.5787 218.5,98C 215.294,98.2963 212.128,98.7963 209,99.5C 205.928,98.0466 203.095,96.2132 200.5,94C 201.056,93.6174 201.389,93.1174 201.5,92.5 Z"/></g>
<g><path style="opacity:1" fill="#255896" d="M 141.5,92.5 C 145.273,92.2633 148.94,92.7633 152.5,94C 149.563,96.6337 146.229,98.467 142.5,99.5C 139.821,99.0643 137.155,98.5643 134.5,98C 137.266,96.629 139.599,94.7957 141.5,92.5 Z"/></g>
<g><path style="opacity:1" fill="#d6dfe1" d="M 191.5,89.5 C 196.92,90.3029 197.587,92.3029 193.5,95.5C 189.319,94.4949 188.653,92.4949 191.5,89.5 Z"/></g>
<g><path style="opacity:1" fill="#d5dfe1" d="M 158.5,89.5 C 163.041,89.8152 164.041,91.6485 161.5,95C 156.676,95.1833 155.676,93.3499 158.5,89.5 Z"/></g>
<g><path style="opacity:1" fill="#d04356" d="M 173.5,88.5 C 177.719,87.979 181.386,89.1457 184.5,92C 178.773,95.4127 173.106,95.246 167.5,91.5C 169.745,90.7918 171.745,89.7918 173.5,88.5 Z"/></g>
<g><path style="opacity:1" fill="#94904e" d="M 244.5,93.5 C 244.5,93.8333 244.5,94.1667 244.5,94.5C 242.219,94.0773 240.552,94.744 239.5,96.5C 239.167,96.5 238.833,96.5 238.5,96.5C 238.5,95.5 238.5,94.5 238.5,93.5C 240.5,93.5 242.5,93.5 244.5,93.5 Z"/></g>
<g><path style="opacity:1" fill="#00519f" d="M 244.5,94.5 C 242.972,95.3092 241.306,95.9759 239.5,96.5C 240.552,94.744 242.219,94.0773 244.5,94.5 Z"/></g>
<g><path style="opacity:1" fill="#cfd5cd" d="M 126.5,97.5 C 131.493,97.997 132.493,100.164 129.5,104C 124.382,103.824 123.382,101.658 126.5,97.5 Z"/></g>
<g><path style="opacity:1" fill="#3b5e8e" d="M 198.5,100.5 C 177.891,98.1949 157.558,99.5282 137.5,104.5C 153.218,98.7322 169.551,96.5655 186.5,98C 190.796,98.0756 194.796,98.9089 198.5,100.5 Z"/></g>
<g><path style="opacity:1" fill="#cfd5cd" d="M 223.5,97.5 C 228.493,97.997 229.493,100.164 226.5,104C 221.382,103.824 220.382,101.658 223.5,97.5 Z"/></g>
<g><path style="opacity:1" fill="#3c5d8f" d="M 199.5,100.5 C 203.924,100.272 207.924,101.272 211.5,103.5C 207.313,102.787 203.313,101.787 199.5,100.5 Z"/></g>
<g><path style="opacity:1" fill="#19559a" d="M 164.5,101.5 C 216.328,99.1595 255.828,119.826 283,163.5C 307.413,212.64 303.08,258.973 270,302.5C 234.09,341.022 190.59,353.522 139.5,340C 100.333,326.167 73.8333,299.667 60,260.5C 46.6116,210.013 58.7783,166.846 96.5,131C 116.369,114.657 139.036,104.823 164.5,101.5 Z"/></g>
<g><path style="opacity:1" fill="#de3753" d="M 119.5,101.5 C 121.5,101.5 122.5,102.5 122.5,104.5C 121.778,104.918 121.278,105.584 121,106.5C 120.329,105.748 119.496,105.414 118.5,105.5C 118.232,103.901 118.566,102.568 119.5,101.5 Z"/></g>
<g><path style="opacity:1" fill="#cb3d5b" d="M 233.5,101.5 C 234.434,102.568 234.768,103.901 234.5,105.5C 234.5,106.167 234.167,106.5 233.5,106.5C 232.5,106.5 231.5,106.5 230.5,106.5C 229.916,103.715 230.916,102.048 233.5,101.5 Z"/></g>
<g><path style="opacity:1" fill="#5c6980" d="M 211.5,103.5 C 216.044,103.459 220.044,104.792 223.5,107.5C 219.353,106.34 215.353,105.007 211.5,103.5 Z"/></g>
<g><path style="opacity:1" fill="#f7bb18" d="M 159.5,105.5 C 219.099,101.202 261.599,125.869 287,179.5C 304.282,232.073 292.782,277.24 252.5,315C 215.256,343.539 174.59,349.539 130.5,333C 84.4858,311.12 60.1524,274.62 57.5,223.5C 60.2564,169.934 86.2564,132.767 135.5,112C 143.463,109.178 151.463,107.012 159.5,105.5 Z"/></g>
<g><path style="opacity:1" fill="#215896" d="M 134.5,105.5 C 133.22,106.931 131.553,107.598 129.5,107.5C 130.78,106.069 132.447,105.402 134.5,105.5 Z"/></g>
<g><path style="opacity:1" fill="#365593" d="M 122.5,104.5 C 122.579,105.93 122.246,107.264 121.5,108.5C 122,108.833 122.5,109.167 123,109.5C 125.047,108.391 127.213,107.724 129.5,107.5C 127.044,109.868 124.044,110.868 120.5,110.5C 120.608,108.486 119.942,106.82 118.5,105.5C 119.496,105.414 120.329,105.748 121,106.5C 121.278,105.584 121.778,104.918 122.5,104.5 Z"/></g>
<g><path style="opacity:1" fill="#205796" d="M 230.5,106.5 C 231.5,106.5 232.5,106.5 233.5,106.5C 232.766,107.708 232.433,109.041 232.5,110.5C 228.956,110.868 225.956,109.868 223.5,107.5C 225.787,107.724 227.953,108.391 230,109.5C 231.683,108.824 231.85,107.824 230.5,106.5 Z"/></g>
<g><path style="opacity:1" fill="#21599d" d="M 165.5,115.5 C 221.672,113.986 259.839,139.319 280,191.5C 291.514,237.615 279.68,276.448 244.5,308C 215.421,330.016 183.088,336.683 147.5,328C 103.082,313.243 76.9154,282.743 69,236.5C 65.5639,189.537 83.7306,153.704 123.5,129C 136.757,121.746 150.757,117.246 165.5,115.5 Z"/></g>
<g><path style="opacity:1" fill="#f9fbfc" d="M 167.5,118.5 C 223.211,118.08 260.044,144.08 278,196.5C 286.583,236.348 276.749,270.848 248.5,300C 215.623,328.319 178.623,335.319 137.5,321C 92.2949,300.081 70.4615,264.581 72,214.5C 80.6871,159.313 112.52,127.313 167.5,118.5 Z"/></g>
<g><path style="opacity:1" fill="#13559e" d="M 223.5,134.5 C 262.053,156.932 279.553,190.599 276,235.5C 270.471,272.855 250.638,299.522 216.5,315.5C 208.014,306.514 199.348,297.681 190.5,289C 186.141,288.466 181.808,288.632 177.5,289.5C 177.5,294.5 177.5,299.5 177.5,304.5C 171.167,304.5 164.833,304.5 158.5,304.5C 158.5,298.5 158.5,292.5 158.5,286.5C 133.603,279.437 117.437,263.437 110,238.5C 108.391,227.505 108.058,216.505 109,205.5C 105.667,202.167 102.333,198.833 99,195.5C 88.5347,225.09 93.7014,251.59 114.5,275C 110.698,279.97 106.364,284.47 101.5,288.5C 79.5479,263.455 71.7146,234.455 78,201.5C 85.0172,172.108 101.684,150.108 128,135.5C 136.154,142.321 143.654,149.821 150.5,158C 158.495,156.156 166.661,155.323 175,155.5C 183.038,155.132 190.871,156.132 198.5,158.5C 199.5,158.333 200.5,158.167 201.5,158C 209.405,150.599 216.738,142.765 223.5,134.5 Z"/></g>
<g><path style="opacity:1" fill="#f8bb17" d="M 174.5,231.5 C 173.514,235.97 173.181,240.637 173.5,245.5C 180.5,245.5 187.5,245.5 194.5,245.5C 194.5,248.833 194.5,252.167 194.5,255.5C 187.833,255.5 181.167,255.5 174.5,255.5C 174.5,261.5 174.5,267.5 174.5,273.5C 190.482,272.425 203.982,266.092 215,254.5C 218.167,257.667 221.333,260.833 224.5,264C 210.818,278.345 194.151,285.845 174.5,286.5C 173.514,290.97 173.181,295.637 173.5,300.5C 169.833,300.5 166.167,300.5 162.5,300.5C 162.821,294.974 162.488,289.64 161.5,284.5C 130.153,275.005 113.486,253.838 111.5,221C 112.602,199.291 121.936,182.124 139.5,169.5C 134.848,164.348 130.015,159.348 125,154.5C 93.3055,180.605 83.6389,213.272 96,252.5C 99.7116,260.765 104.545,268.265 110.5,275C 107.667,277.833 104.833,280.667 102,283.5C 82.5218,260.261 75.5218,233.594 81,203.5C 87.3449,174.871 103.178,153.705 128.5,140C 135.865,147.03 142.865,154.364 149.5,162C 158.352,160.236 167.352,159.07 176.5,158.5C 185.036,158.505 193.203,160.172 201,163.5C 208.865,155.97 216.365,148.136 223.5,140C 225.289,139.48 226.956,139.813 228.5,141C 268.332,169.826 281.499,207.992 268,255.5C 264.046,266.078 258.546,275.745 251.5,284.5C 247.833,281.5 244.5,278.167 241.5,274.5C 267.981,239.412 268.148,204.078 242,168.5C 237.301,163.466 232.301,158.8 227,154.5C 222.12,159.044 217.62,163.878 213.5,169C 217.6,173.1 221.767,177.267 226,181.5C 227.602,183.369 228.602,185.369 229,187.5C 226.297,190.538 223.297,193.205 220,195.5C 216.917,190.412 213.083,185.912 208.5,182C 206.788,180.249 204.788,179.582 202.5,180C 193.625,188.708 184.958,197.541 176.5,206.5C 166.847,197.348 157.347,188.014 148,178.5C 125.657,194.866 118.99,216.199 128,242.5C 135.063,256.728 146.229,266.062 161.5,270.5C 161.5,254.5 161.5,238.5 161.5,222.5C 172.5,222.5 183.5,222.5 194.5,222.5C 194.5,225.5 194.5,228.5 194.5,231.5C 187.833,231.5 181.167,231.5 174.5,231.5 Z"/></g>
<g><path style="opacity:1" fill="#fcfdfd" d="M 226.5,159.5 C 229.436,161.255 232.269,163.255 235,165.5C 254.29,186.985 261.29,211.985 256,240.5C 254.212,247.401 251.378,253.735 247.5,259.5C 227.635,239.803 208.302,219.636 189.5,199C 193.97,193.363 198.97,188.196 204.5,183.5C 210.587,188.251 215.587,193.918 219.5,200.5C 224.646,196.522 229.646,192.355 234.5,188C 230.259,180.424 224.592,174.09 217.5,169C 220.704,165.964 223.704,162.797 226.5,159.5 Z"/></g>
<g><path style="opacity:1" fill="#1c579c" d="M 168.5,170.5 C 176.373,170.028 184.04,171.028 191.5,173.5C 186.804,179.03 181.637,184.03 176,188.5C 170.9,183.4 165.733,178.233 160.5,173C 163.31,172.218 165.977,171.384 168.5,170.5 Z"/></g>
<g><path style="opacity:1" fill="#ecf1f7" d="M 168.5,173.5 C 174.004,173.068 179.337,173.735 184.5,175.5C 182.134,178.701 179.3,181.367 176,183.5C 173.049,181.553 170.382,179.219 168,176.5C 167.53,175.423 167.697,174.423 168.5,173.5 Z"/></g>
<g><path style="opacity:1" fill="#fafbfd" d="M 127.5,225.5 C 137.798,235.298 147.965,245.298 158,255.5C 158.498,258.817 158.665,262.15 158.5,265.5C 145.409,261.58 136.243,253.247 131,240.5C 129.042,235.671 127.876,230.671 127.5,225.5 Z"/></g>
<g><path style="opacity:1" fill="#577471" d="M 174.5,231.5 C 174.5,235.833 174.5,240.167 174.5,244.5C 181.354,244.176 188.021,244.509 194.5,245.5C 187.5,245.5 180.5,245.5 173.5,245.5C 173.181,240.637 173.514,235.97 174.5,231.5 Z"/></g>
<g><path style="opacity:1" fill="#7d8759" d="M 161.5,284.5 C 162.488,289.64 162.821,294.974 162.5,300.5C 166.167,300.5 169.833,300.5 173.5,300.5C 173.181,295.637 173.514,290.97 174.5,286.5C 174.5,291.5 174.5,296.5 174.5,301.5C 170.167,301.5 165.833,301.5 161.5,301.5C 161.5,295.833 161.5,290.167 161.5,284.5 Z"/></g>
</svg>
