<?xml version="1.0" encoding="UTF-8"?>
<!DOCTYPE svg PUBLIC "-//W3C//DTD SVG 1.1//EN" "http://www.w3.org/Graphics/SVG/1.1/DTD/svg11.dtd">
<svg xmlns="http://www.w3.org/2000/svg" version="1.1" width="360px" height="360px" style="shape-rendering:geometricPrecision; text-rendering:geometricPrecision; image-rendering:optimizeQuality; fill-rule:evenodd; clip-rule:evenodd" xmlns:xlink="http://www.w3.org/1999/xlink">
<g><path style="opacity:1" fill="#151515" d="M 205.5,47.5 C 205.241,49.9893 206.241,51.656 208.5,52.5C 209.674,53.5137 210.34,54.847 210.5,56.5C 210.427,58.0269 211.094,59.0269 212.5,59.5C 213.338,59.8417 213.672,60.5084 213.5,61.5C 213.427,63.0269 214.094,64.0269 215.5,64.5C 216.674,65.5137 217.34,66.847 217.5,68.5C 217.427,70.0269 218.094,71.0269 219.5,71.5C 220.674,72.5137 221.34,73.847 221.5,75.5C 221.427,77.0269 222.094,78.0269 223.5,78.5C 224.338,78.8417 224.672,79.5084 224.5,80.5C 224.427,82.0269 225.094,83.0269 226.5,83.5C 227.338,83.8417 227.672,84.5084 227.5,85.5C 226.191,88.7927 224.858,92.126 223.5,95.5C 223.672,96.4916 223.338,97.1583 222.5,97.5C 219.161,100.835 216.828,104.835 215.5,109.5C 215.672,110.492 215.338,111.158 214.5,111.5C 212.75,112.659 211.75,114.326 211.5,116.5C 209.75,117.659 208.75,119.326 208.5,121.5C 208.672,122.492 208.338,123.158 207.5,123.5C 206.094,123.973 205.427,124.973 205.5,126.5C 205.672,127.492 205.338,128.158 204.5,128.5C 187.756,128.818 171.089,128.485 154.5,127.5C 154.446,125.368 153.446,124.035 151.5,123.5C 150.471,121.483 149.471,119.483 148.5,117.5C 147.476,113.43 145.476,110.096 142.5,107.5C 141.326,106.486 140.66,105.153 140.5,103.5C 139.921,100.669 138.588,98.3356 136.5,96.5C 135.55,93.9321 135.55,91.4321 136.5,89C 135.207,88.51 133.873,88.3433 132.5,88.5C 132.5,87.1667 132.5,85.8333 132.5,84.5C 134.408,83.5144 135.408,81.8477 135.5,79.5C 135.328,78.5084 135.662,77.8417 136.5,77.5C 138.408,76.5144 139.408,74.8477 139.5,72.5C 139.328,71.5084 139.662,70.8417 140.5,70.5C 142.408,69.5144 143.408,67.8477 143.5,65.5C 145.931,63.954 147.264,61.6207 147.5,58.5C 149.588,56.6644 150.921,54.3311 151.5,51.5C 153.446,50.9653 154.446,49.632 154.5,47.5C 171.401,43.5196 188.401,43.5196 205.5,47.5 Z"/></g>
<g><path style="opacity:0.922" fill="#575757" d="M 154.5,47.5 C 154.446,49.632 153.446,50.9653 151.5,51.5C 151.554,49.368 152.554,48.0347 154.5,47.5 Z"/></g>
<g><path style="opacity:0.988" fill="#595959" d="M 205.5,47.5 C 206.89,48.8993 207.89,50.5659 208.5,52.5C 206.241,51.656 205.241,49.9893 205.5,47.5 Z"/></g>
<g><path style="opacity:0.898" fill="#6e6e6e" d="M 139.5,55.5 C 139.5,54.5 139.5,53.5 139.5,52.5C 138.167,52.5 136.833,52.5 135.5,52.5C 137.6,50.7273 139.934,50.394 142.5,51.5C 141.479,52.9014 140.479,54.2347 139.5,55.5 Z"/></g>
<g><path style="opacity:0.31" fill="#959595" d="M 220.5,51.5 C 219.508,51.3284 218.842,51.6618 218.5,52.5C 217.115,51.6977 217.282,51.0311 219,50.5C 219.765,50.5699 220.265,50.9033 220.5,51.5 Z"/></g>
<g><path style="opacity:0.263" fill="#9a9a9a" d="M 151.5,51.5 C 150.921,54.3311 149.588,56.6644 147.5,58.5C 148.079,55.6689 149.412,53.3356 151.5,51.5 Z"/></g>
<g><path style="opacity:0.741" fill="#8a8a8a" d="M 218.5,53.5 C 221.138,55.4179 222.805,58.0846 223.5,61.5C 221.347,59.2063 219.68,56.5396 218.5,53.5 Z"/></g>
<g><path style="opacity:0.925" fill="#5b5b5b" d="M 129.5,54.5 C 126.503,57.4965 122.836,59.1631 118.5,59.5C 121.74,57.049 125.407,55.3824 129.5,54.5 Z"/></g>
<g><path style="opacity:1" fill="#191919" d="M 133.5,65.5 C 133.008,67.8185 132.008,69.8185 130.5,71.5C 129.094,71.9731 128.427,72.9731 128.5,74.5C 127.331,77.5113 125.664,80.178 123.5,82.5C 111.12,83.1458 99.1201,82.4791 87.5,80.5C 88.1667,80.1667 88.8333,79.8333 89.5,79.5C 92.0892,78.5806 94.0892,76.914 95.5,74.5C 97.8785,72.1223 100.545,70.1223 103.5,68.5C 105.027,68.573 106.027,67.9063 106.5,66.5C 108.027,66.573 109.027,65.9063 109.5,64.5C 109.842,63.6618 110.508,63.3284 111.5,63.5C 113.027,63.573 114.027,62.9063 114.5,61.5C 115.514,60.3263 116.847,59.6596 118.5,59.5C 122.836,59.1631 126.503,57.4965 129.5,54.5C 131.547,54.4889 133.547,54.1556 135.5,53.5C 139.131,54.5162 139.464,56.3496 136.5,59C 135.167,59.6667 133.833,60.3333 132.5,61C 133.38,62.3561 133.714,63.8561 133.5,65.5 Z"/></g>
<g><path style="opacity:0.384" fill="#858585" d="M 210.5,56.5 C 211.906,56.9731 212.573,57.9731 212.5,59.5C 211.094,59.0269 210.427,58.0269 210.5,56.5 Z"/></g>
<g><path style="opacity:0.169" fill="#a2a2a2" d="M 238.5,58.5 C 240.38,58.2291 241.713,58.8958 242.5,60.5C 240.847,60.3404 239.514,59.6737 238.5,58.5 Z"/></g>
<g><path style="opacity:0.989" fill="#525252" d="M 135.5,52.5 C 136.833,52.5 138.167,52.5 139.5,52.5C 139.5,53.5 139.5,54.5 139.5,55.5C 138,59.173 136,62.5063 133.5,65.5C 133.714,63.8561 133.38,62.3561 132.5,61C 133.833,60.3333 135.167,59.6667 136.5,59C 139.464,56.3496 139.131,54.5162 135.5,53.5C 133.547,54.1556 131.547,54.4889 129.5,54.5C 131.214,53.2616 133.214,52.595 135.5,52.5 Z"/></g>
<g><path style="opacity:0.999" fill="#414141" d="M 226.5,53.5 C 230.889,54.4025 234.889,56.0692 238.5,58.5C 239.514,59.6737 240.847,60.3404 242.5,60.5C 243.492,60.3284 244.158,60.6618 244.5,61.5C 241.729,61.5793 239.063,61.0793 236.5,60C 237.34,58.3335 236.84,58.1669 235,59.5C 234.626,58.5838 234.126,57.7504 233.5,57C 230.608,56.7509 228.275,55.5842 226.5,53.5 Z"/></g>
<g><path style="opacity:0.999" fill="#191919" d="M 220.5,51.5 C 222.786,51.595 224.786,52.2616 226.5,53.5C 228.275,55.5842 230.608,56.7509 233.5,57C 234.126,57.7504 234.626,58.5838 235,59.5C 236.84,58.1669 237.34,58.3335 236.5,60C 239.063,61.0793 241.729,61.5793 244.5,61.5C 247.004,62.5839 249.337,63.9172 251.5,65.5C 253.951,68.2768 256.951,70.2768 260.5,71.5C 261.5,71.8333 262.167,72.5 262.5,73.5C 262.973,74.9063 263.973,75.573 265.5,75.5C 267.389,76.604 269.055,77.9373 270.5,79.5C 270.414,80.4959 270.748,81.3292 271.5,82C 259.505,82.4999 247.505,82.6665 235.5,82.5C 232.742,79.322 230.742,75.6553 229.5,71.5C 228.788,69.0721 227.788,66.7388 226.5,64.5C 227.152,62.5497 226.152,61.5497 223.5,61.5C 222.805,58.0846 221.138,55.4179 218.5,53.5C 218.5,53.1667 218.5,52.8333 218.5,52.5C 218.842,51.6618 219.508,51.3284 220.5,51.5 Z"/></g>
<g><path style="opacity:0.545" fill="#8a8a8a" d="M 114.5,61.5 C 114.027,62.9063 113.027,63.573 111.5,63.5C 111.973,62.0937 112.973,61.427 114.5,61.5 Z"/></g>
<g><path style="opacity:0.929" fill="#636363" d="M 147.5,58.5 C 147.264,61.6207 145.931,63.954 143.5,65.5C 144.079,62.6689 145.412,60.3356 147.5,58.5 Z"/></g>
<g><path style="opacity:0.361" fill="#969696" d="M 213.5,61.5 C 214.906,61.9731 215.573,62.9731 215.5,64.5C 214.094,64.0269 213.427,63.0269 213.5,61.5 Z"/></g>
<g><path style="opacity:0.573" fill="#858585" d="M 109.5,64.5 C 109.027,65.9063 108.027,66.573 106.5,66.5C 106.973,65.0937 107.973,64.427 109.5,64.5 Z"/></g>
<g><path style="opacity:0.796" fill="#656565" d="M 223.5,61.5 C 226.152,61.5497 227.152,62.5497 226.5,64.5C 227.788,66.7388 228.788,69.0721 229.5,71.5C 227,68.5063 225,65.173 223.5,61.5 Z"/></g>
<g><path style="opacity:0.573" fill="#7f7f7f" d="M 106.5,66.5 C 106.027,67.9063 105.027,68.573 103.5,68.5C 103.973,67.0937 104.973,66.427 106.5,66.5 Z"/></g>
<g><path style="opacity:0.42" fill="#939393" d="M 251.5,65.5 C 255.025,66.7589 258.025,68.7589 260.5,71.5C 256.951,70.2768 253.951,68.2768 251.5,65.5 Z"/></g>
<g><path style="opacity:0.898" fill="#757575" d="M 143.5,65.5 C 143.408,67.8477 142.408,69.5144 140.5,70.5C 140.75,68.326 141.75,66.6594 143.5,65.5 Z"/></g>
<g><path style="opacity:0.231" fill="#a4a4a4" d="M 217.5,68.5 C 218.906,68.9731 219.573,69.9731 219.5,71.5C 218.094,71.0269 217.427,70.0269 217.5,68.5 Z"/></g>
<g><path style="opacity:0.153" fill="#b4b4b4" d="M 130.5,71.5 C 130.573,73.0269 129.906,74.0269 128.5,74.5C 128.427,72.9731 129.094,71.9731 130.5,71.5 Z"/></g>
<g><path style="opacity:0.055" fill="#9e9e9e" d="M 262.5,73.5 C 264.027,73.427 265.027,74.0937 265.5,75.5C 263.973,75.573 262.973,74.9063 262.5,73.5 Z"/></g>
<g><path style="opacity:0.925" fill="#656565" d="M 139.5,72.5 C 139.408,74.8477 138.408,76.5144 136.5,77.5C 136.75,75.326 137.75,73.6594 139.5,72.5 Z"/></g>
<g><path style="opacity:0.627" fill="#747474" d="M 95.5,74.5 C 94.0892,76.914 92.0892,78.5806 89.5,79.5C 90.9108,77.086 92.9108,75.4194 95.5,74.5 Z"/></g>
<g><path style="opacity:0.427" fill="#888888" d="M 221.5,75.5 C 222.906,75.9731 223.573,76.9731 223.5,78.5C 222.094,78.0269 221.427,77.0269 221.5,75.5 Z"/></g>
<g><path style="opacity:0.206" fill="#b0b0b0" d="M 87.5,80.5 C 99.1201,82.4791 111.12,83.1458 123.5,82.5C 111.345,83.4952 99.0113,83.8286 86.5,83.5C 86.2627,82.209 86.596,81.209 87.5,80.5 Z"/></g>
<g><path style="opacity:0.306" fill="#9a9a9a" d="M 224.5,80.5 C 225.906,80.9731 226.573,81.9731 226.5,83.5C 225.094,83.0269 224.427,82.0269 224.5,80.5 Z"/></g>
<g><path style="opacity:0.243" fill="#aeaeae" d="M 270.5,79.5 C 272.505,80.254 273.172,81.4207 272.5,83C 259.993,83.8265 247.66,83.6599 235.5,82.5C 247.505,82.6665 259.505,82.4999 271.5,82C 270.748,81.3292 270.414,80.4959 270.5,79.5 Z"/></g>
<g><path style="opacity:0.918" fill="#646464" d="M 135.5,79.5 C 135.408,81.8477 134.408,83.5144 132.5,84.5C 132.75,82.326 133.75,80.6594 135.5,79.5 Z"/></g>
<g><path style="opacity:0.804" fill="#7a7a7a" d="M 125.5,94.5 C 124.711,94.2172 124.044,93.7172 123.5,93C 108.504,92.5001 93.5037,92.3334 78.5,92.5C 78.5,91.8333 78.8333,91.5 79.5,91.5C 94.0517,90.9359 108.385,90.6026 122.5,90.5C 124.288,91.2826 125.288,92.6159 125.5,94.5 Z"/></g>
<g><path style="opacity:0.937" fill="#444444" d="M 132.5,84.5 C 132.5,85.8333 132.5,87.1667 132.5,88.5C 133.873,88.3433 135.207,88.51 136.5,89C 135.55,91.4321 135.55,93.9321 136.5,96.5C 134.15,93.6512 132.15,90.4845 130.5,87C 131.066,86.0053 131.733,85.172 132.5,84.5 Z"/></g>
<g><path style="opacity:0.798" fill="#757575" d="M 282.5,92.5 C 266.422,92.1825 250.422,92.5159 234.5,93.5C 234.75,92.0779 235.583,91.0779 237,90.5C 247.623,90.8145 258.456,90.8145 269.5,90.5C 274.055,90.6253 278.389,91.292 282.5,92.5 Z"/></g>
<g><path style="opacity:1" fill="#151515" d="M 78.5,92.5 C 93.5037,92.3334 108.504,92.5001 123.5,93C 124.044,93.7172 124.711,94.2172 125.5,94.5C 126.674,95.5137 127.34,96.847 127.5,98.5C 127.427,100.027 128.094,101.027 129.5,101.5C 130.338,101.842 130.672,102.508 130.5,103.5C 130.427,105.027 131.094,106.027 132.5,106.5C 134.008,108.181 135.008,110.181 135.5,112.5C 135.427,114.027 136.094,115.027 137.5,115.5C 139.083,117.663 140.416,119.996 141.5,122.5C 141.427,124.027 142.094,125.027 143.5,125.5C 145.008,127.181 146.008,129.181 146.5,131.5C 146.416,134.327 145.75,136.994 144.5,139.5C 144.34,141.153 143.674,142.486 142.5,143.5C 141.094,143.973 140.427,144.973 140.5,146.5C 138.076,149.008 136.41,152.008 135.5,155.5C 134.094,155.973 133.427,156.973 133.5,158.5C 131.412,160.336 130.079,162.669 129.5,165.5C 128.921,168.331 127.588,170.664 125.5,172.5C 124.094,172.973 123.427,173.973 123.5,175.5C 107.2,174.862 90.8667,174.195 74.5,173.5C 73.8461,171.142 72.5128,169.475 70.5,168.5C 66.9814,163.463 63.9814,158.13 61.5,152.5C 59.4668,148.416 57.9668,144.083 57,139.5C 55.8552,139.381 54.6885,139.048 53.5,138.5C 53.7038,135.482 54.0371,132.482 54.5,129.5C 54.9348,126.843 55.9348,124.509 57.5,122.5C 59.2451,120.967 60.2451,118.967 60.5,116.5C 62.4077,115.514 63.4077,113.848 63.5,111.5C 63.3284,110.508 63.6618,109.842 64.5,109.5C 66.3264,107.853 67.6597,105.853 68.5,103.5C 68.7376,101.596 69.7376,100.262 71.5,99.5C 73.2624,98.7377 74.2624,97.4044 74.5,95.5C 75.8333,94.5 77.1667,93.5 78.5,92.5 Z"/></g>
<g><path style="opacity:0.337" fill="#919191" d="M 227.5,85.5 C 228.598,86.6009 228.765,87.9343 228,89.5C 226.723,91.7472 225.223,93.7472 223.5,95.5C 224.858,92.126 226.191,88.7927 227.5,85.5 Z"/></g>
<g><path style="opacity:1" fill="#141414" d="M 282.5,92.5 C 283.08,94.7488 284.413,96.4154 286.5,97.5C 286.738,99.4044 287.738,100.738 289.5,101.5C 289.738,103.404 290.738,104.738 292.5,105.5C 292.427,107.027 293.094,108.027 294.5,108.5C 295.674,109.514 296.34,110.847 296.5,112.5C 296.427,114.027 297.094,115.027 298.5,115.5C 299.674,116.514 300.34,117.847 300.5,119.5C 300.031,122.393 301.031,124.393 303.5,125.5C 303.5,125.833 303.5,126.167 303.5,126.5C 304.207,130.248 305.207,133.914 306.5,137.5C 305.921,140.331 304.588,142.664 302.5,144.5C 300.412,146.336 299.079,148.669 298.5,151.5C 298.672,152.492 298.338,153.158 297.5,153.5C 296.094,153.973 295.427,154.973 295.5,156.5C 293.412,158.336 292.079,160.669 291.5,163.5C 291.672,164.492 291.338,165.158 290.5,165.5C 289.325,165.281 288.325,165.614 287.5,166.5C 286.877,169.167 285.877,171.667 284.5,174C 267.568,174.75 250.901,174.584 234.5,173.5C 233.653,169.473 231.987,165.806 229.5,162.5C 229.709,161.914 230.043,161.414 230.5,161C 229.099,160.59 227.766,160.09 226.5,159.5C 226.25,157.326 225.25,155.659 223.5,154.5C 223.573,152.973 222.906,151.973 221.5,151.5C 220.326,150.486 219.66,149.153 219.5,147.5C 219.13,144.733 217.796,142.733 215.5,141.5C 214.56,139.388 213.394,137.388 212,135.5C 211.235,133.934 211.402,132.601 212.5,131.5C 213.906,131.027 214.573,130.027 214.5,128.5C 214.328,127.508 214.662,126.842 215.5,126.5C 217.931,124.954 219.264,122.621 219.5,119.5C 221.931,117.954 223.264,115.621 223.5,112.5C 225.408,111.514 226.408,109.848 226.5,107.5C 228.614,106.64 229.78,104.973 230,102.5C 231.205,101.929 232.372,101.262 233.5,100.5C 233.291,99.914 232.957,99.414 232.5,99C 233.464,97.2745 234.131,95.4412 234.5,93.5C 250.422,92.5159 266.422,92.1825 282.5,92.5 Z"/></g>
<g><path style="opacity:0.561" fill="#8b8b8b" d="M 79.5,91.5 C 78.8333,91.5 78.5,91.8333 78.5,92.5C 77.1667,93.5 75.8333,94.5 74.5,95.5C 75.2385,92.3737 76.9051,91.0403 79.5,91.5 Z"/></g>
<g><path style="opacity:0.725" fill="#7c7c7c" d="M 282.5,92.5 C 284.587,93.5846 285.92,95.2512 286.5,97.5C 284.413,96.4154 283.08,94.7488 282.5,92.5 Z"/></g>
<g><path style="opacity:0.714" fill="#767676" d="M 74.5,95.5 C 74.2624,97.4044 73.2624,98.7377 71.5,99.5C 71.7376,97.5956 72.7376,96.2623 74.5,95.5 Z"/></g>
<g><path style="opacity:0.314" fill="#919191" d="M 136.5,96.5 C 138.588,98.3356 139.921,100.669 140.5,103.5C 138.412,101.664 137.079,99.3311 136.5,96.5 Z"/></g>
<g><path style="opacity:0.729" fill="#757575" d="M 286.5,97.5 C 288.262,98.2623 289.262,99.5956 289.5,101.5C 287.738,100.738 286.738,99.4044 286.5,97.5 Z"/></g>
<g><path style="opacity:0.982" fill="#575757" d="M 234.5,93.5 C 234.131,95.4412 233.464,97.2745 232.5,99C 232.957,99.414 233.291,99.914 233.5,100.5C 232.372,101.262 231.205,101.929 230,102.5C 229.78,104.973 228.614,106.64 226.5,107.5C 228.664,102.5 231.331,97.833 234.5,93.5 Z"/></g>
<g><path style="opacity:0.341" fill="#969696" d="M 127.5,98.5 C 128.906,98.9731 129.573,99.9731 129.5,101.5C 128.094,101.027 127.427,100.027 127.5,98.5 Z"/></g>
<g><path style="opacity:0.525" fill="#898989" d="M 289.5,101.5 C 291.262,102.262 292.262,103.596 292.5,105.5C 290.738,104.738 289.738,103.404 289.5,101.5 Z"/></g>
<g><path style="opacity:0.408" fill="#a0a0a0" d="M 222.5,97.5 C 220.668,101.836 218.335,105.836 215.5,109.5C 216.828,104.835 219.161,100.835 222.5,97.5 Z"/></g>
<g><path style="opacity:0.361" fill="#9d9d9d" d="M 130.5,103.5 C 131.906,103.973 132.573,104.973 132.5,106.5C 131.094,106.027 130.427,105.027 130.5,103.5 Z"/></g>
<g><path style="opacity:0.851" fill="#7f7f7f" d="M 142.5,107.5 C 145.476,110.096 147.476,113.43 148.5,117.5C 146.012,114.534 144.012,111.201 142.5,107.5 Z"/></g>
<g><path style="opacity:0.275" fill="#a8a8a8" d="M 292.5,105.5 C 293.906,105.973 294.573,106.973 294.5,108.5C 293.094,108.027 292.427,107.027 292.5,105.5 Z"/></g>
<g><path style="opacity:0.431" fill="#8d8d8d" d="M 68.5,103.5 C 67.6597,105.853 66.3264,107.853 64.5,109.5C 64.8449,106.802 66.1782,104.802 68.5,103.5 Z"/></g>
<g><path style="opacity:0.929" fill="#717171" d="M 226.5,107.5 C 226.408,109.848 225.408,111.514 223.5,112.5C 223.75,110.326 224.75,108.659 226.5,107.5 Z"/></g>
<g><path style="opacity:0.294" fill="#9f9f9f" d="M 214.5,111.5 C 214.25,113.674 213.25,115.341 211.5,116.5C 211.75,114.326 212.75,112.659 214.5,111.5 Z"/></g>
<g><path style="opacity:0.404" fill="#8d8d8d" d="M 135.5,112.5 C 136.906,112.973 137.573,113.973 137.5,115.5C 136.094,115.027 135.427,114.027 135.5,112.5 Z"/></g>
<g><path style="opacity:0.357" fill="#8f8f8f" d="M 296.5,112.5 C 297.906,112.973 298.573,113.973 298.5,115.5C 297.094,115.027 296.427,114.027 296.5,112.5 Z"/></g>
<g><path style="opacity:0.929" fill="#5d5d5d" d="M 63.5,111.5 C 63.4077,113.848 62.4077,115.514 60.5,116.5C 60.7497,114.326 61.7497,112.659 63.5,111.5 Z"/></g>
<g><path style="opacity:0.882" fill="#737373" d="M 223.5,112.5 C 223.264,115.621 221.931,117.954 219.5,119.5C 220.079,116.669 221.412,114.336 223.5,112.5 Z"/></g>
<g><path style="opacity:0.396" fill="#999999" d="M 211.5,116.5 C 211.25,118.674 210.25,120.341 208.5,121.5C 208.75,119.326 209.75,117.659 211.5,116.5 Z"/></g>
<g><path style="opacity:0.435" fill="#8e8e8e" d="M 60.5,116.5 C 60.2451,118.967 59.2451,120.967 57.5,122.5C 57.7549,120.033 58.7549,118.033 60.5,116.5 Z"/></g>
<g><path style="opacity:0.898" fill="#636363" d="M 300.5,119.5 C 302.008,121.181 303.008,123.181 303.5,125.5C 301.031,124.393 300.031,122.393 300.5,119.5 Z"/></g>
<g><path style="opacity:0.678" fill="#848484" d="M 151.5,123.5 C 153.446,124.035 154.446,125.368 154.5,127.5C 153.026,126.564 152.026,125.23 151.5,123.5 Z"/></g>
<g><path style="opacity:0.906" fill="#686868" d="M 219.5,119.5 C 219.264,122.621 217.931,124.954 215.5,126.5C 216.079,123.669 217.412,121.336 219.5,119.5 Z"/></g>
<g><path style="opacity:0.373" fill="#9d9d9d" d="M 141.5,122.5 C 142.906,122.973 143.573,123.973 143.5,125.5C 142.094,125.027 141.427,124.027 141.5,122.5 Z"/></g>
<g><path style="opacity:0.251" fill="#9c9c9c" d="M 207.5,123.5 C 207.573,125.027 206.906,126.027 205.5,126.5C 205.427,124.973 206.094,123.973 207.5,123.5 Z"/></g>
<g><path style="opacity:0.52" fill="#707070" d="M 154.5,127.5 C 171.089,128.485 187.756,128.818 204.5,128.5C 196.34,129.166 188.007,129.5 179.5,129.5C 170.806,129.498 162.472,128.831 154.5,127.5 Z"/></g>
<g><path style="opacity:0.902" fill="#6a6a6a" d="M 303.5,126.5 C 306.391,129.812 307.391,133.479 306.5,137.5C 305.207,133.914 304.207,130.248 303.5,126.5 Z"/></g>
<g><path style="opacity:0.333" fill="#989898" d="M 214.5,128.5 C 214.573,130.027 213.906,131.027 212.5,131.5C 212.427,129.973 213.094,128.973 214.5,128.5 Z"/></g>
<g><path style="opacity:0.784" fill="#676767" d="M 54.5,129.5 C 54.0371,132.482 53.7038,135.482 53.5,138.5C 52.7326,137.828 52.0659,136.995 51.5,136C 52.4217,133.706 53.4217,131.539 54.5,129.5 Z"/></g>
<g><path style="opacity:0.428" fill="#868686" d="M 204.5,138.5 C 187.756,138.182 171.089,138.515 154.5,139.5C 162.472,138.169 170.806,137.502 179.5,137.5C 188.007,137.5 196.34,137.834 204.5,138.5 Z"/></g>
<g><path style="opacity:0.2" fill="#9e9e9e" d="M 146.5,131.5 C 147.478,131.811 148.145,132.478 148.5,133.5C 147.639,135.911 146.306,137.911 144.5,139.5C 145.75,136.994 146.416,134.327 146.5,131.5 Z"/></g>
<g><path style="opacity:1" fill="#141414" d="M 204.5,138.5 C 204.241,140.989 205.241,142.656 207.5,143.5C 207.427,145.027 208.094,146.027 209.5,146.5C 209.5,146.833 209.5,147.167 209.5,147.5C 209.427,149.027 210.094,150.027 211.5,150.5C 212.338,150.842 212.672,151.508 212.5,152.5C 212.427,154.027 213.094,155.027 214.5,155.5C 215.674,156.514 216.34,157.847 216.5,159.5C 216.427,161.027 217.094,162.027 218.5,162.5C 219.338,162.842 219.672,163.508 219.5,164.5C 219.427,166.027 220.094,167.027 221.5,167.5C 222.674,168.514 223.34,169.847 223.5,171.5C 223.75,173.674 224.75,175.341 226.5,176.5C 227.338,176.842 227.672,177.508 227.5,178.5C 227.371,180.216 227.038,181.883 226.5,183.5C 226.672,184.492 226.338,185.158 225.5,185.5C 224.094,185.973 223.427,186.973 223.5,188.5C 221.412,190.336 220.079,192.669 219.5,195.5C 218.5,195.5 217.5,195.5 216.5,195.5C 216.552,197.903 216.219,200.236 215.5,202.5C 213.75,203.659 212.75,205.326 212.5,207.5C 211.234,208.09 209.901,208.59 208.5,209C 209.333,211.081 209.333,213.248 208.5,215.5C 208.5,216.167 208.167,216.5 207.5,216.5C 205.75,217.659 204.75,219.326 204.5,221.5C 187.756,221.818 171.089,221.485 154.5,220.5C 154.573,218.973 153.906,217.973 152.5,217.5C 151.662,217.158 151.328,216.492 151.5,215.5C 149.851,209.536 146.851,204.536 142.5,200.5C 140.975,198.784 139.975,196.784 139.5,194.5C 139.573,192.973 138.906,191.973 137.5,191.5C 135.917,189.337 134.584,187.004 133.5,184.5C 133.007,182.194 132.674,179.861 132.5,177.5C 134.408,176.514 135.408,174.848 135.5,172.5C 137.559,170.74 138.892,168.406 139.5,165.5C 142.415,163.349 144.082,160.349 144.5,156.5C 146.408,155.514 147.408,153.848 147.5,151.5C 149.931,149.954 151.264,147.621 151.5,144.5C 153.408,143.514 154.408,141.848 154.5,139.5C 171.089,138.515 187.756,138.182 204.5,138.5 Z"/></g>
<g><path style="opacity:0.945" fill="#6b6b6b" d="M 204.5,138.5 C 205.89,139.899 206.89,141.566 207.5,143.5C 205.241,142.656 204.241,140.989 204.5,138.5 Z"/></g>
<g><path style="opacity:0.698" fill="#909090" d="M 215.5,141.5 C 217.796,142.733 219.13,144.733 219.5,147.5C 217.684,145.882 216.351,143.882 215.5,141.5 Z"/></g>
<g><path style="opacity:0.89" fill="#5e5e5e" d="M 53.5,138.5 C 54.6885,139.048 55.8552,139.381 57,139.5C 57.9668,144.083 59.4668,148.416 61.5,152.5C 58.331,148.167 55.6643,143.5 53.5,138.5 Z"/></g>
<g><path style="opacity:0.929" fill="#666666" d="M 154.5,139.5 C 154.408,141.848 153.408,143.514 151.5,144.5C 151.75,142.326 152.75,140.659 154.5,139.5 Z"/></g>
<g><path style="opacity:0.196" fill="#b4b4b4" d="M 142.5,143.5 C 142.573,145.027 141.906,146.027 140.5,146.5C 140.427,144.973 141.094,143.973 142.5,143.5 Z"/></g>
<g><path style="opacity:0.2" fill="#bebebe" d="M 207.5,143.5 C 208.906,143.973 209.573,144.973 209.5,146.5C 208.094,146.027 207.427,145.027 207.5,143.5 Z"/></g>
<g><path style="opacity:0.914" fill="#5f5f5f" d="M 151.5,144.5 C 151.264,147.621 149.931,149.954 147.5,151.5C 148.079,148.669 149.412,146.336 151.5,144.5 Z"/></g>
<g><path style="opacity:0.408" fill="#909090" d="M 209.5,147.5 C 210.906,147.973 211.573,148.973 211.5,150.5C 210.094,150.027 209.427,149.027 209.5,147.5 Z"/></g>
<g><path style="opacity:0.153" fill="#999999" d="M 302.5,144.5 C 301.921,147.331 300.588,149.664 298.5,151.5C 299.079,148.669 300.412,146.336 302.5,144.5 Z"/></g>
<g><path style="opacity:0.89" fill="#5f5f5f" d="M 312.5,155.5 C 311.207,154.158 310.374,152.491 310,150.5C 309.617,151.056 309.117,151.389 308.5,151.5C 308.628,149.91 309.295,148.577 310.5,147.5C 311.795,150.012 312.461,152.679 312.5,155.5 Z"/></g>
<g><path style="opacity:0.102" fill="#c2c2c2" d="M 221.5,151.5 C 222.906,151.973 223.573,152.973 223.5,154.5C 222.094,154.027 221.427,153.027 221.5,151.5 Z"/></g>
<g><path style="opacity:0.998" fill="#1c1c1c" d="M 51.5,152.5 C 51.427,154.027 52.0937,155.027 53.5,155.5C 54.6737,156.514 55.3404,157.847 55.5,159.5C 55.427,161.027 56.0937,162.027 57.5,162.5C 57.2407,164.989 58.2407,166.656 60.5,167.5C 62.341,169.849 63.6743,172.515 64.5,175.5C 64.427,177.027 65.0937,178.027 66.5,178.5C 67.5735,179.251 67.7401,180.251 67,181.5C 64.807,185.23 62.6404,188.897 60.5,192.5C 59.0937,192.973 58.427,193.973 58.5,195.5C 58.3404,197.153 57.6737,198.486 56.5,199.5C 55.0937,199.973 54.427,200.973 54.5,202.5C 53.9213,205.331 52.588,207.664 50.5,209.5C 49.8826,209.611 49.3826,209.944 49,210.5C 48.7679,209.263 48.2679,208.263 47.5,207.5C 46.2053,203.733 45.5387,199.733 45.5,195.5C 45.3451,182.815 45.6784,170.149 46.5,157.5C 46.804,154.478 47.304,151.478 48,148.5C 48.6667,147.167 49.3333,147.167 50,148.5C 50.7914,149.745 51.2914,151.078 51.5,152.5 Z"/></g>
<g><path style="opacity:0.314" fill="#939393" d="M 51.5,152.5 C 52.9063,152.973 53.573,153.973 53.5,155.5C 52.0937,155.027 51.427,154.027 51.5,152.5 Z"/></g>
<g><path style="opacity:0.078" fill="#bbbbbb" d="M 140.5,146.5 C 139.59,149.992 137.924,152.992 135.5,155.5C 136.41,152.008 138.076,149.008 140.5,146.5 Z"/></g>
<g><path style="opacity:0.329" fill="#9f9f9f" d="M 212.5,152.5 C 213.906,152.973 214.573,153.973 214.5,155.5C 213.094,155.027 212.427,154.027 212.5,152.5 Z"/></g>
<g><path style="opacity:0.925" fill="#666666" d="M 147.5,151.5 C 147.408,153.848 146.408,155.514 144.5,156.5C 144.75,154.326 145.75,152.659 147.5,151.5 Z"/></g>
<g><path style="opacity:0.18" fill="#9f9f9f" d="M 297.5,153.5 C 297.573,155.027 296.906,156.027 295.5,156.5C 295.427,154.973 296.094,153.973 297.5,153.5 Z"/></g>
<g><path style="opacity:0.937" fill="#5d5d5d" d="M 308.5,151.5 C 308.408,153.848 307.408,155.514 305.5,156.5C 305.75,154.326 306.75,152.659 308.5,151.5 Z"/></g>
<g><path style="opacity:0.369" fill="#969696" d="M 223.5,154.5 C 225.25,155.659 226.25,157.326 226.5,159.5C 224.75,158.341 223.75,156.674 223.5,154.5 Z"/></g>
<g><path style="opacity:0.263" fill="#afafaf" d="M 135.5,155.5 C 135.573,157.027 134.906,158.027 133.5,158.5C 133.427,156.973 134.094,155.973 135.5,155.5 Z"/></g>
<g><path style="opacity:0.192" fill="#999999" d="M 305.5,156.5 C 305.573,158.027 304.906,159.027 303.5,159.5C 303.427,157.973 304.094,156.973 305.5,156.5 Z"/></g>
<g><path style="opacity:0.999" fill="#1b1b1b" d="M 312.5,155.5 C 312.5,155.833 312.5,156.167 312.5,156.5C 312.302,161.75 312.969,166.75 314.5,171.5C 315.834,182.826 315.167,194.159 312.5,205.5C 311.442,206.6 310.608,207.934 310,209.5C 309.617,208.944 309.117,208.611 308.5,208.5C 307.805,205.085 306.138,202.418 303.5,200.5C 303.5,200.167 303.5,199.833 303.5,199.5C 303.13,196.733 301.796,194.733 299.5,193.5C 299.244,191.208 299.577,189.041 300.5,187C 298.983,185.221 298.149,185.721 298,188.5C 297.617,187.944 297.117,187.611 296.5,187.5C 295.094,187.027 294.427,186.027 294.5,184.5C 293.167,181.5 293.167,178.5 294.5,175.5C 295.906,175.027 296.573,174.027 296.5,172.5C 298.269,171.579 299.935,170.412 301.5,169C 300.464,167.224 300.464,165.391 301.5,163.5C 301.733,161.938 302.4,160.605 303.5,159.5C 304.906,159.027 305.573,158.027 305.5,156.5C 307.408,155.514 308.408,153.848 308.5,151.5C 309.117,151.389 309.617,151.056 310,150.5C 310.374,152.491 311.207,154.158 312.5,155.5 Z"/></g>
<g><path style="opacity:1" fill="#636363" d="M 226.5,159.5 C 227.766,160.09 229.099,160.59 230.5,161C 230.043,161.414 229.709,161.914 229.5,162.5C 231.987,165.806 233.653,169.473 234.5,173.5C 231.331,169.167 228.664,164.5 226.5,159.5 Z"/></g>
<g><path style="opacity:0.318" fill="#8c8c8c" d="M 295.5,156.5 C 294.921,159.331 293.588,161.664 291.5,163.5C 292.079,160.669 293.412,158.336 295.5,156.5 Z"/></g>
<g><path style="opacity:0.341" fill="#939393" d="M 55.5,159.5 C 56.9063,159.973 57.573,160.973 57.5,162.5C 56.0937,162.027 55.427,161.027 55.5,159.5 Z"/></g>
<g><path style="opacity:0.302" fill="#afafaf" d="M 216.5,159.5 C 217.906,159.973 218.573,160.973 218.5,162.5C 217.094,162.027 216.427,161.027 216.5,159.5 Z"/></g>
<g><path style="opacity:0.212" fill="#b1b1b1" d="M 133.5,158.5 C 133.002,161.326 131.669,163.66 129.5,165.5C 130.079,162.669 131.412,160.336 133.5,158.5 Z"/></g>
<g><path style="opacity:0.957" fill="#5a5a5a" d="M 144.5,156.5 C 144.082,160.349 142.415,163.349 139.5,165.5C 140.41,162.008 142.076,159.008 144.5,156.5 Z"/></g>
<g><path style="opacity:0.949" fill="#626262" d="M 57.5,162.5 C 58.8897,163.899 59.8897,165.566 60.5,167.5C 58.2407,166.656 57.2407,164.989 57.5,162.5 Z"/></g>
<g><path style="opacity:0.184" fill="#bfbfbf" d="M 219.5,164.5 C 220.906,164.973 221.573,165.973 221.5,167.5C 220.094,167.027 219.427,166.027 219.5,164.5 Z"/></g>
<g><path style="opacity:0.978" fill="#4b4b4b" d="M 301.5,163.5 C 300.464,165.391 300.464,167.224 301.5,169C 299.935,170.412 298.269,171.579 296.5,172.5C 297.41,169.008 299.076,166.008 301.5,163.5 Z"/></g>
<g><path style="opacity:0.635" fill="#6d6d6d" d="M 312.5,156.5 C 314.145,161.234 314.811,166.234 314.5,171.5C 312.969,166.75 312.302,161.75 312.5,156.5 Z"/></g>
<g><path style="opacity:0.961" fill="#5b5b5b" d="M 139.5,165.5 C 138.892,168.406 137.559,170.74 135.5,172.5C 136.079,169.669 137.412,167.336 139.5,165.5 Z"/></g>
<g><path style="opacity:0.306" fill="#9d9d9d" d="M 223.5,171.5 C 225.25,172.659 226.25,174.326 226.5,176.5C 224.75,175.341 223.75,173.674 223.5,171.5 Z"/></g>
<g><path style="opacity:0.527" fill="#848484" d="M 46.5,157.5 C 45.6784,170.149 45.3451,182.815 45.5,195.5C 44.834,190.511 44.5006,185.344 44.5,180C 44.316,172.272 44.9826,164.772 46.5,157.5 Z"/></g>
<g><path style="opacity:0.902" fill="#575757" d="M 70.5,168.5 C 72.5128,169.475 73.8461,171.142 74.5,173.5C 90.8667,174.195 107.2,174.862 123.5,175.5C 108.339,176.661 93.0055,176.828 77.5,176C 73.7108,174.963 71.3775,172.463 70.5,168.5 Z"/></g>
<g><path style="opacity:0.318" fill="#898989" d="M 125.5,172.5 C 125.573,174.027 124.906,175.027 123.5,175.5C 123.427,173.973 124.094,172.973 125.5,172.5 Z"/></g>
<g><path style="opacity:0.846" fill="#585858" d="M 290.5,165.5 C 288.986,168.692 287.32,171.859 285.5,175C 269.199,176.536 252.866,176.869 236.5,176C 235.244,175.583 234.577,174.75 234.5,173.5C 250.901,174.584 267.568,174.75 284.5,174C 285.877,171.667 286.877,169.167 287.5,166.5C 288.325,165.614 289.325,165.281 290.5,165.5 Z"/></g>
<g><path style="opacity:0.31" fill="#909090" d="M 296.5,172.5 C 296.573,174.027 295.906,175.027 294.5,175.5C 294.427,173.973 295.094,172.973 296.5,172.5 Z"/></g>
<g><path style="opacity:0.941" fill="#5e5e5e" d="M 135.5,172.5 C 135.408,174.848 134.408,176.514 132.5,177.5C 132.75,175.326 133.75,173.659 135.5,172.5 Z"/></g>
<g><path style="opacity:0.447" fill="#7f7f7f" d="M 64.5,175.5 C 65.9063,175.973 66.573,176.973 66.5,178.5C 65.0937,178.027 64.427,177.027 64.5,175.5 Z"/></g>
<g><path style="opacity:0.553" fill="#7f7f7f" d="M 132.5,177.5 C 132.674,179.861 133.007,182.194 133.5,184.5C 130.266,182.428 129.933,180.095 132.5,177.5 Z"/></g>
<g><path style="opacity:0.576" fill="#747474" d="M 294.5,175.5 C 293.167,178.5 293.167,181.5 294.5,184.5C 290.745,181.613 290.745,178.613 294.5,175.5 Z"/></g>
<g><path style="opacity:0.11" fill="#b3b3b3" d="M 227.5,178.5 C 228.93,180.455 228.597,182.121 226.5,183.5C 227.038,181.883 227.371,180.216 227.5,178.5 Z"/></g>
<g><path style="opacity:0.06" fill="#d3d3d3" d="M 262.5,184.5 C 253.827,184.334 245.16,184.5 236.5,185C 235.956,185.717 235.289,186.217 234.5,186.5C 234.414,185.504 234.748,184.671 235.5,184C 244.676,183.176 253.676,183.343 262.5,184.5 Z"/></g>
<g><path style="opacity:0.744" fill="#626262" d="M 125.5,187.5 C 124.711,187.217 124.044,186.717 123.5,186C 107.156,185.167 90.8231,185.334 74.5,186.5C 74.1852,188.483 73.1852,189.816 71.5,190.5C 71.8769,188.742 72.5435,187.075 73.5,185.5C 79.9954,184.736 86.4954,184.069 93,183.5C 102.291,183.62 111.624,183.62 121,183.5C 123.521,183.822 125.021,185.156 125.5,187.5 Z"/></g>
<g><path style="opacity:0.157" fill="#adadad" d="M 225.5,185.5 C 225.573,187.027 224.906,188.027 223.5,188.5C 223.427,186.973 224.094,185.973 225.5,185.5 Z"/></g>
<g><path style="opacity:1" fill="#151515" d="M 285.5,186.5 C 285.427,188.027 286.094,189.027 287.5,189.5C 288.338,189.842 288.672,190.508 288.5,191.5C 288.427,193.027 289.094,194.027 290.5,194.5C 291.338,194.842 291.672,195.508 291.5,196.5C 291.427,198.027 292.094,199.027 293.5,199.5C 294.114,202.276 294.281,204.943 294,207.5C 295.711,206.419 297.211,206.752 298.5,208.5C 299.338,208.842 299.672,209.508 299.5,210.5C 299.427,212.027 300.094,213.027 301.5,213.5C 302.674,214.514 303.34,215.847 303.5,217.5C 303.427,219.027 304.094,220.027 305.5,220.5C 307.461,222.32 307.794,224.32 306.5,226.5C 305.069,227.78 304.402,229.447 304.5,231.5C 304.443,232.609 304.11,233.609 303.5,234.5C 299.553,237.835 297.22,242.168 296.5,247.5C 296.672,248.492 296.338,249.158 295.5,249.5C 294.094,249.973 293.427,250.973 293.5,252.5C 292.094,252.973 291.427,253.973 291.5,255.5C 291.573,257.027 290.906,258.027 289.5,258.5C 288.094,258.973 287.427,259.973 287.5,261.5C 286.557,264.109 284.89,266.109 282.5,267.5C 266.833,267.5 251.167,267.5 235.5,267.5C 235.36,265.876 236.027,264.71 237.5,264C 236.299,263.097 235.465,261.931 235,260.5C 234.667,261.167 234.333,261.833 234,262.5C 233.329,261.748 232.496,261.414 231.5,261.5C 229.975,259.784 228.975,257.784 228.5,255.5C 228.573,253.973 227.906,252.973 226.5,252.5C 226.573,250.973 225.906,249.973 224.5,249.5C 223.326,248.486 222.66,247.153 222.5,245.5C 222.25,243.326 221.25,241.659 219.5,240.5C 219.727,238.067 218.727,236.401 216.5,235.5C 215.326,234.486 214.66,233.153 214.5,231.5C 214.573,229.973 213.906,228.973 212.5,228.5C 211.167,227.167 211.167,225.833 212.5,224.5C 213.906,224.027 214.573,223.027 214.5,221.5C 217.415,219.349 219.082,216.349 219.5,212.5C 221.408,211.514 222.408,209.848 222.5,207.5C 222.328,206.508 222.662,205.842 223.5,205.5C 225.559,203.74 226.892,201.406 227.5,198.5C 229.408,197.514 230.408,195.848 230.5,193.5C 230.328,192.508 230.662,191.842 231.5,191.5C 233.408,190.514 234.408,188.848 234.5,186.5C 235.289,186.217 235.956,185.717 236.5,185C 245.16,184.5 253.827,184.334 262.5,184.5C 263.577,183.982 264.744,183.648 266,183.5C 272.896,183.733 279.396,184.733 285.5,186.5 Z"/></g>
<g><path style="opacity:0.408" fill="#828282" d="M 285.5,186.5 C 286.906,186.973 287.573,187.973 287.5,189.5C 286.094,189.027 285.427,188.027 285.5,186.5 Z"/></g>
<g><path style="opacity:1" fill="#454545" d="M 299.5,193.5 C 297.992,191.819 296.992,189.819 296.5,187.5C 297.117,187.611 297.617,187.944 298,188.5C 298.149,185.721 298.983,185.221 300.5,187C 299.577,189.041 299.244,191.208 299.5,193.5 Z"/></g>
<g><path style="opacity:1" fill="#141414" d="M 125.5,187.5 C 126.338,187.842 126.672,188.508 126.5,189.5C 126.427,191.027 127.094,192.027 128.5,192.5C 129.674,193.514 130.34,194.847 130.5,196.5C 131.06,198.801 131.56,201.134 132,203.5C 132.77,202.402 133.603,202.402 134.5,203.5C 134.427,205.027 135.094,206.027 136.5,206.5C 137.338,206.842 137.672,207.508 137.5,208.5C 137.427,210.027 138.094,211.027 139.5,211.5C 140.674,212.514 141.34,213.847 141.5,215.5C 141.34,217.199 141.506,218.866 142,220.5C 142.77,219.402 143.603,219.402 144.5,220.5C 145.401,221.29 146.068,222.29 146.5,223.5C 146.587,226.739 145.92,229.739 144.5,232.5C 144.672,233.492 144.338,234.158 143.5,234.5C 141.75,235.659 140.75,237.326 140.5,239.5C 140.672,240.492 140.338,241.158 139.5,241.5C 138.094,241.973 137.427,242.973 137.5,244.5C 135.412,246.336 134.079,248.669 133.5,251.5C 131.896,252.287 131.229,253.62 131.5,255.5C 129.99,256.836 128.323,258.003 126.5,259C 127.252,259.671 127.586,260.504 127.5,261.5C 127.672,262.492 127.338,263.158 126.5,263.5C 123.538,263.117 122.538,264.117 123.5,266.5C 107.848,267.499 92.1808,267.833 76.5,267.5C 76.2624,265.596 75.2624,264.262 73.5,263.5C 73.5,261.5 72.5,260.5 70.5,260.5C 70.5,260.167 70.5,259.833 70.5,259.5C 69.2504,256.994 68.5838,254.327 68.5,251.5C 66.6776,251.169 65.0109,250.502 63.5,249.5C 63.1667,248.833 62.8333,248.167 62.5,247.5C 62.8399,244.856 62.1733,242.523 60.5,240.5C 61.4604,239.188 61.2937,237.854 60,236.5C 59.6174,237.056 59.1174,237.389 58.5,237.5C 57.9744,235.77 56.9744,234.436 55.5,233.5C 55.5,233.167 55.5,232.833 55.5,232.5C 54.0825,228.998 53.4158,225.331 53.5,221.5C 54.9063,221.027 55.573,220.027 55.5,218.5C 55.6596,216.847 56.3263,215.514 57.5,214.5C 60.0679,212.973 61.4012,210.639 61.5,207.5C 62.9063,207.027 63.573,206.027 63.5,204.5C 65.6643,199.5 68.331,194.833 71.5,190.5C 73.1852,189.816 74.1852,188.483 74.5,186.5C 90.8231,185.334 107.156,185.167 123.5,186C 124.044,186.717 124.711,187.217 125.5,187.5 Z"/></g>
<g><path style="opacity:0.918" fill="#6d6d6d" d="M 234.5,186.5 C 234.408,188.848 233.408,190.514 231.5,191.5C 231.75,189.326 232.75,187.659 234.5,186.5 Z"/></g>
<g><path style="opacity:0.298" fill="#969696" d="M 126.5,189.5 C 127.906,189.973 128.573,190.973 128.5,192.5C 127.094,192.027 126.427,191.027 126.5,189.5 Z"/></g>
<g><path style="opacity:0.231" fill="#9e9e9e" d="M 137.5,191.5 C 138.906,191.973 139.573,192.973 139.5,194.5C 138.094,194.027 137.427,193.027 137.5,191.5 Z"/></g>
<g><path style="opacity:0.302" fill="#8f8f8f" d="M 288.5,191.5 C 289.906,191.973 290.573,192.973 290.5,194.5C 289.094,194.027 288.427,193.027 288.5,191.5 Z"/></g>
<g><path style="opacity:0.867" fill="#636363" d="M 299.5,193.5 C 301.796,194.733 303.13,196.733 303.5,199.5C 301.684,197.882 300.351,195.882 299.5,193.5 Z"/></g>
<g><path style="opacity:0.282" fill="#959595" d="M 60.5,192.5 C 60.573,194.027 59.9063,195.027 58.5,195.5C 58.427,193.973 59.0937,192.973 60.5,192.5 Z"/></g>
<g><path style="opacity:0.192" fill="#a3a3a3" d="M 223.5,188.5 C 222.921,191.331 221.588,193.664 219.5,195.5C 220.079,192.669 221.412,190.336 223.5,188.5 Z"/></g>
<g><path style="opacity:1" fill="#6d6d6d" d="M 219.5,195.5 C 218.921,198.331 217.588,200.664 215.5,202.5C 216.219,200.236 216.552,197.903 216.5,195.5C 217.5,195.5 218.5,195.5 219.5,195.5 Z"/></g>
<g><path style="opacity:0.918" fill="#717171" d="M 230.5,193.5 C 230.408,195.848 229.408,197.514 227.5,198.5C 227.75,196.326 228.75,194.659 230.5,193.5 Z"/></g>
<g><path style="opacity:0.2" fill="#a1a1a1" d="M 291.5,196.5 C 292.906,196.973 293.573,197.973 293.5,199.5C 292.094,199.027 291.427,198.027 291.5,196.5 Z"/></g>
<g><path style="opacity:0.851" fill="#757575" d="M 142.5,200.5 C 146.851,204.536 149.851,209.536 151.5,215.5C 147.76,211.033 144.76,206.033 142.5,200.5 Z"/></g>
<g><path style="opacity:0.82" fill="#747474" d="M 303.5,200.5 C 306.138,202.418 307.805,205.085 308.5,208.5C 306.347,206.206 304.68,203.54 303.5,200.5 Z"/></g>
<g><path style="opacity:0.157" fill="#aeaeae" d="M 56.5,199.5 C 56.573,201.027 55.9063,202.027 54.5,202.5C 54.427,200.973 55.0937,199.973 56.5,199.5 Z"/></g>
<g><path style="opacity:1" fill="#595959" d="M 130.5,196.5 C 132.588,198.336 133.921,200.669 134.5,203.5C 133.603,202.402 132.77,202.402 132,203.5C 131.56,201.134 131.06,198.801 130.5,196.5 Z"/></g>
<g><path style="opacity:0.4" fill="#939393" d="M 215.5,202.5 C 215.25,204.674 214.25,206.341 212.5,207.5C 212.75,205.326 213.75,203.659 215.5,202.5 Z"/></g>
<g><path style="opacity:0.937" fill="#797979" d="M 227.5,198.5 C 226.892,201.406 225.559,203.74 223.5,205.5C 224.079,202.669 225.412,200.336 227.5,198.5 Z"/></g>
<g><path style="opacity:0.992" fill="#464646" d="M 293.5,199.5 C 295.417,202.331 297.083,205.331 298.5,208.5C 297.211,206.752 295.711,206.419 294,207.5C 294.281,204.943 294.114,202.276 293.5,199.5 Z"/></g>
<g><path style="opacity:0.38" fill="#989898" d="M 134.5,203.5 C 135.906,203.973 136.573,204.973 136.5,206.5C 135.094,206.027 134.427,205.027 134.5,203.5 Z"/></g>
<g><path style="opacity:0.255" fill="#878787" d="M 63.5,204.5 C 63.573,206.027 62.9063,207.027 61.5,207.5C 61.427,205.973 62.0937,204.973 63.5,204.5 Z"/></g>
<g><path style="opacity:1" fill="#6c6c6c" d="M 212.5,207.5 C 211.674,210.485 210.341,213.151 208.5,215.5C 209.333,213.248 209.333,211.081 208.5,209C 209.901,208.59 211.234,208.09 212.5,207.5 Z"/></g>
<g><path style="opacity:0.675" fill="#656565" d="M 312.5,205.5 C 312.162,207.854 311.662,210.187 311,212.5C 309.519,211.529 308.685,210.196 308.5,208.5C 309.117,208.611 309.617,208.944 310,209.5C 310.608,207.934 311.442,206.6 312.5,205.5 Z"/></g>
<g><path style="opacity:0.09" fill="#999999" d="M 47.5,207.5 C 48.2679,208.263 48.7679,209.263 49,210.5C 49.3826,209.944 49.8826,209.611 50.5,209.5C 50.5386,210.756 50.0386,211.756 49,212.5C 47.7308,211.095 47.2308,209.429 47.5,207.5 Z"/></g>
<g><path style="opacity:0.988" fill="#575757" d="M 61.5,207.5 C 61.4012,210.639 60.0679,212.973 57.5,214.5C 58.0787,211.669 59.412,209.336 61.5,207.5 Z"/></g>
<g><path style="opacity:0.341" fill="#9c9c9c" d="M 137.5,208.5 C 138.906,208.973 139.573,209.973 139.5,211.5C 138.094,211.027 137.427,210.027 137.5,208.5 Z"/></g>
<g><path style="opacity:0.953" fill="#676767" d="M 222.5,207.5 C 222.408,209.848 221.408,211.514 219.5,212.5C 219.75,210.326 220.75,208.659 222.5,207.5 Z"/></g>
<g><path style="opacity:0.329" fill="#929292" d="M 299.5,210.5 C 300.906,210.973 301.573,211.973 301.5,213.5C 300.094,213.027 299.427,212.027 299.5,210.5 Z"/></g>
<g><path style="opacity:1" fill="#555555" d="M 141.5,215.5 C 143.25,216.659 144.25,218.326 144.5,220.5C 143.603,219.402 142.77,219.402 142,220.5C 141.506,218.866 141.34,217.199 141.5,215.5 Z"/></g>
<g><path style="opacity:0.286" fill="#a9a9a9" d="M 207.5,216.5 C 207.25,218.674 206.25,220.341 204.5,221.5C 204.75,219.326 205.75,217.659 207.5,216.5 Z"/></g>
<g><path style="opacity:0.212" fill="#a1a1a1" d="M 152.5,217.5 C 153.906,217.973 154.573,218.973 154.5,220.5C 153.094,220.027 152.427,219.027 152.5,217.5 Z"/></g>
<g><path style="opacity:0.322" fill="#999999" d="M 303.5,217.5 C 304.906,217.973 305.573,218.973 305.5,220.5C 304.094,220.027 303.427,219.027 303.5,217.5 Z"/></g>
<g><path style="opacity:0.396" fill="#848484" d="M 55.5,218.5 C 55.573,220.027 54.9063,221.027 53.5,221.5C 53.427,219.973 54.0937,218.973 55.5,218.5 Z"/></g>
<g><path style="opacity:0.992" fill="#4e4e4e" d="M 219.5,212.5 C 219.082,216.349 217.415,219.349 214.5,221.5C 215.41,218.008 217.076,215.008 219.5,212.5 Z"/></g>
<g><path style="opacity:0.535" fill="#7a7a7a" d="M 154.5,220.5 C 171.089,221.485 187.756,221.818 204.5,221.5C 196.34,222.166 188.007,222.5 179.5,222.5C 170.806,222.498 162.472,221.831 154.5,220.5 Z"/></g>
<g><path style="opacity:0.424" fill="#909090" d="M 214.5,221.5 C 214.573,223.027 213.906,224.027 212.5,224.5C 212.427,222.973 213.094,221.973 214.5,221.5 Z"/></g>
<g><path style="opacity:0.337" fill="#808080" d="M 53.5,221.5 C 53.4158,225.331 54.0825,228.998 55.5,232.5C 53.5187,230.035 52.1853,227.201 51.5,224C 52.0659,223.005 52.7326,222.172 53.5,221.5 Z"/></g>
<g><path style="opacity:0.2" fill="#929292" d="M 146.5,223.5 C 147.391,224.261 148.058,225.261 148.5,226.5C 147.5,228.813 146.166,230.813 144.5,232.5C 145.92,229.739 146.587,226.739 146.5,223.5 Z"/></g>
<g><path style="opacity:0.341" fill="#929292" d="M 306.5,226.5 C 306.598,228.553 305.931,230.22 304.5,231.5C 304.402,229.447 305.069,227.78 306.5,226.5 Z"/></g>
<g><path style="opacity:0.518" fill="#757575" d="M 204.5,231.5 C 187.756,231.182 171.089,231.515 154.5,232.5C 162.472,231.169 170.806,230.502 179.5,230.5C 188.007,230.5 196.34,230.834 204.5,231.5 Z"/></g>
<g><path style="opacity:0.29" fill="#a0a0a0" d="M 212.5,228.5 C 213.906,228.973 214.573,229.973 214.5,231.5C 213.094,231.027 212.427,230.027 212.5,228.5 Z"/></g>
<g><path style="opacity:1" fill="#151515" d="M 204.5,231.5 C 205.338,231.842 205.672,232.508 205.5,233.5C 205.427,235.027 206.094,236.027 207.5,236.5C 208.338,236.842 208.672,237.508 208.5,238.5C 208.427,240.027 209.094,241.027 210.5,241.5C 211.338,241.842 211.672,242.508 211.5,243.5C 212.079,246.331 213.412,248.664 215.5,250.5C 216.338,250.842 216.672,251.508 216.5,252.5C 216.427,254.027 217.094,255.027 218.5,255.5C 218.338,257.527 218.505,259.527 219,261.5C 219.333,261.167 219.667,260.833 220,260.5C 220.889,263.628 222.722,265.961 225.5,267.5C 224.994,270.431 224.994,273.265 225.5,276C 224.68,277.8 224.014,279.634 223.5,281.5C 223.672,282.492 223.338,283.158 222.5,283.5C 220.273,284.401 219.273,286.067 219.5,288.5C 218.094,288.973 217.427,289.973 217.5,291.5C 216.198,292.807 214.865,292.807 213.5,291.5C 213.167,292 212.833,292.5 212.5,293C 213.747,295.507 213.747,298.007 212.5,300.5C 210.75,301.659 209.75,303.326 209.5,305.5C 208.326,306.514 207.66,307.847 207.5,309.5C 206.972,310.721 206.305,311.887 205.5,313C 188.308,316.488 171.308,316.321 154.5,312.5C 154.144,310.81 153.144,309.81 151.5,309.5C 150.89,308.609 150.557,307.609 150.5,306.5C 149.94,304.199 149.44,301.866 149,299.5C 148.23,298.402 147.397,298.402 146.5,299.5C 143.665,295.836 141.332,291.836 139.5,287.5C 138.925,284.046 137.258,281.379 134.5,279.5C 134.771,277.62 134.104,276.287 132.5,275.5C 132.561,272.95 133.894,271.45 136.5,271C 135.572,270.612 134.905,269.945 134.5,269C 135.148,267.56 135.481,266.06 135.5,264.5C 136.263,262.632 137.263,260.965 138.5,259.5C 139.708,258.766 141.041,258.433 142.5,258.5C 142.448,256.097 142.781,253.764 143.5,251.5C 143.328,250.508 143.662,249.842 144.5,249.5C 146.559,247.74 147.892,245.406 148.5,242.5C 149.906,242.027 150.573,241.027 150.5,239.5C 150.328,238.508 150.662,237.842 151.5,237.5C 153.408,236.514 154.408,234.848 154.5,232.5C 171.089,231.515 187.756,231.182 204.5,231.5 Z"/></g>
<g><path style="opacity:0.392" fill="#8b8b8b" d="M 55.5,233.5 C 56.9744,234.436 57.9744,235.77 58.5,237.5C 58.5,238.167 58.5,238.833 58.5,239.5C 56.9925,237.819 55.9925,235.819 55.5,233.5 Z"/></g>
<g><path style="opacity:0.365" fill="#a5a5a5" d="M 205.5,233.5 C 206.906,233.973 207.573,234.973 207.5,236.5C 206.094,236.027 205.427,235.027 205.5,233.5 Z"/></g>
<g><path style="opacity:0.302" fill="#a0a0a0" d="M 143.5,234.5 C 143.25,236.674 142.25,238.341 140.5,239.5C 140.75,237.326 141.75,235.659 143.5,234.5 Z"/></g>
<g><path style="opacity:0.925" fill="#636363" d="M 154.5,232.5 C 154.408,234.848 153.408,236.514 151.5,237.5C 151.75,235.326 152.75,233.659 154.5,232.5 Z"/></g>
<g><path style="opacity:0.204" fill="#8f8f8f" d="M 216.5,235.5 C 218.727,236.401 219.727,238.067 219.5,240.5C 218.11,239.101 217.11,237.434 216.5,235.5 Z"/></g>
<g><path style="opacity:0.951" fill="#616161" d="M 303.5,234.5 C 301.926,239.32 299.593,243.653 296.5,247.5C 297.22,242.168 299.553,237.835 303.5,234.5 Z"/></g>
<g><path style="opacity:0.29" fill="#9e9e9e" d="M 208.5,238.5 C 209.906,238.973 210.573,239.973 210.5,241.5C 209.094,241.027 208.427,240.027 208.5,238.5 Z"/></g>
<g><path style="opacity:0.42" fill="#888888" d="M 150.5,239.5 C 150.573,241.027 149.906,242.027 148.5,242.5C 148.427,240.973 149.094,239.973 150.5,239.5 Z"/></g>
<g><path style="opacity:0.306" fill="#9a9a9a" d="M 219.5,240.5 C 221.25,241.659 222.25,243.326 222.5,245.5C 220.75,244.341 219.75,242.674 219.5,240.5 Z"/></g>
<g><path style="opacity:0.933" fill="#414141" d="M 62.5,247.5 C 60.659,245.151 59.3257,242.485 58.5,239.5C 58.5,238.833 58.5,238.167 58.5,237.5C 59.1174,237.389 59.6174,237.056 60,236.5C 61.2937,237.854 61.4604,239.188 60.5,240.5C 62.1733,242.523 62.8399,244.856 62.5,247.5 Z"/></g>
<g><path style="opacity:0.231" fill="#a7a7a7" d="M 139.5,241.5 C 139.573,243.027 138.906,244.027 137.5,244.5C 137.427,242.973 138.094,241.973 139.5,241.5 Z"/></g>
<g><path style="opacity:0.404" fill="#999999" d="M 137.5,244.5 C 136.921,247.331 135.588,249.664 133.5,251.5C 134.079,248.669 135.412,246.336 137.5,244.5 Z"/></g>
<g><path style="opacity:0.933" fill="#6e6e6e" d="M 148.5,242.5 C 147.892,245.406 146.559,247.74 144.5,249.5C 145.079,246.669 146.412,244.336 148.5,242.5 Z"/></g>
<g><path style="opacity:0.494" fill="#939393" d="M 211.5,243.5 C 213.588,245.336 214.921,247.669 215.5,250.5C 213.412,248.664 212.079,246.331 211.5,243.5 Z"/></g>
<g><path style="opacity:0.016" fill="#a4a4a4" d="M 224.5,249.5 C 225.906,249.973 226.573,250.973 226.5,252.5C 225.094,252.027 224.427,251.027 224.5,249.5 Z"/></g>
<g><path style="opacity:1" fill="#4d4d4d" d="M 63.5,249.5 C 65.0109,250.502 66.6776,251.169 68.5,251.5C 68.5838,254.327 69.2504,256.994 70.5,259.5C 67.6869,256.554 65.3535,253.221 63.5,249.5 Z"/></g>
<g><path style="opacity:0.243" fill="#8f8f8f" d="M 295.5,249.5 C 295.573,251.027 294.906,252.027 293.5,252.5C 293.427,250.973 294.094,249.973 295.5,249.5 Z"/></g>
<g><path style="opacity:0.318" fill="#9f9f9f" d="M 133.5,251.5 C 133.34,253.153 132.674,254.486 131.5,255.5C 131.229,253.62 131.896,252.287 133.5,251.5 Z"/></g>
<g><path style="opacity:0.286" fill="#a6a6a6" d="M 216.5,252.5 C 217.906,252.973 218.573,253.973 218.5,255.5C 217.094,255.027 216.427,254.027 216.5,252.5 Z"/></g>
<g><path style="opacity:0.384" fill="#858585" d="M 226.5,252.5 C 227.906,252.973 228.573,253.973 228.5,255.5C 227.094,255.027 226.427,254.027 226.5,252.5 Z"/></g>
<g><path style="opacity:0.31" fill="#858585" d="M 293.5,252.5 C 293.573,254.027 292.906,255.027 291.5,255.5C 291.427,253.973 292.094,252.973 293.5,252.5 Z"/></g>
<g><path style="opacity:0.986" fill="#5d5d5d" d="M 143.5,251.5 C 142.781,253.764 142.448,256.097 142.5,258.5C 141.041,258.433 139.708,258.766 138.5,259.5C 139.669,256.489 141.336,253.822 143.5,251.5 Z"/></g>
<g><path style="opacity:0.967" fill="#666666" d="M 131.5,255.5 C 130.66,257.853 129.326,259.853 127.5,261.5C 127.586,260.504 127.252,259.671 126.5,259C 128.323,258.003 129.99,256.836 131.5,255.5 Z"/></g>
<g><path style="opacity:0.987" fill="#5d5d5d" d="M 218.5,255.5 C 221.335,259.164 223.668,263.164 225.5,267.5C 222.722,265.961 220.889,263.628 220,260.5C 219.667,260.833 219.333,261.167 219,261.5C 218.505,259.527 218.338,257.527 218.5,255.5 Z"/></g>
<g><path style="opacity:0.031" fill="#979797" d="M 289.5,258.5 C 289.573,260.027 288.906,261.027 287.5,261.5C 287.427,259.973 288.094,258.973 289.5,258.5 Z"/></g>
<g><path style="opacity:0.51" fill="#909090" d="M 70.5,260.5 C 72.5,260.5 73.5,261.5 73.5,263.5C 72.1667,262.833 71.1667,261.833 70.5,260.5 Z"/></g>
<g><path style="opacity:0.035" fill="#aaaaaa" d="M 73.5,263.5 C 75.2624,264.262 76.2624,265.596 76.5,267.5C 74.7376,266.738 73.7376,265.404 73.5,263.5 Z"/></g>
<g><path style="opacity:0.788" fill="#5f5f5f" d="M 126.5,263.5 C 126.249,265.17 125.582,266.67 124.5,268C 108.149,269.836 92.1492,269.669 76.5,267.5C 92.1808,267.833 107.848,267.499 123.5,266.5C 122.538,264.117 123.538,263.117 126.5,263.5 Z"/></g>
<g><path style="opacity:0.794" fill="#5d5d5d" d="M 282.5,267.5 C 268.537,269.247 254.203,269.58 239.5,268.5C 237.833,268.167 236.167,267.833 234.5,267.5C 233.487,265.473 232.487,263.473 231.5,261.5C 232.496,261.414 233.329,261.748 234,262.5C 234.333,261.833 234.667,261.167 235,260.5C 235.465,261.931 236.299,263.097 237.5,264C 236.027,264.71 235.36,265.876 235.5,267.5C 251.167,267.5 266.833,267.5 282.5,267.5 Z"/></g>
<g><path style="opacity:0.949" fill="#444444" d="M 135.5,264.5 C 135.481,266.06 135.148,267.56 134.5,269C 134.905,269.945 135.572,270.612 136.5,271C 133.894,271.45 132.561,272.95 132.5,275.5C 131.733,274.828 131.066,273.995 130.5,273C 132.067,270.021 133.734,267.188 135.5,264.5 Z"/></g>
<g><path style="opacity:1" fill="#575757" d="M 225.5,267.5 C 229.335,272.599 228.669,277.266 223.5,281.5C 224.014,279.634 224.68,277.8 225.5,276C 224.994,273.265 224.994,270.431 225.5,267.5 Z"/></g>
<g><path style="opacity:0.294" fill="#949494" d="M 132.5,275.5 C 134.104,276.287 134.771,277.62 134.5,279.5C 133.326,278.486 132.66,277.153 132.5,275.5 Z"/></g>
<g><path style="opacity:1" fill="#202020" d="M 126.5,282.5 C 126.427,284.027 127.094,285.027 128.5,285.5C 129.674,286.514 130.34,287.847 130.5,289.5C 130.427,291.027 131.094,292.027 132.5,292.5C 135.258,295.678 137.258,299.345 138.5,303.5C 138.427,305.027 139.094,306.027 140.5,306.5C 140.5,307.833 139.833,308.5 138.5,308.5C 137.041,308.567 135.708,308.234 134.5,307.5C 132.824,305.166 130.491,304.166 127.5,304.5C 125.572,302.526 123.239,301.026 120.5,300C 122.901,299.195 122.734,298.362 120,297.5C 117.88,298.605 115.713,298.605 113.5,297.5C 106.803,294.489 100.803,290.489 95.5,285.5C 94.0892,283.086 92.0892,281.419 89.5,280.5C 87.5541,279.746 86.7207,278.412 87,276.5C 98.9618,276.377 111.128,276.543 123.5,277C 125.16,278.488 126.16,280.321 126.5,282.5 Z"/></g>
<g><path style="opacity:1" fill="#212121" d="M 260.5,288.5 C 258.973,288.427 257.973,289.094 257.5,290.5C 257.027,291.906 256.027,292.573 254.5,292.5C 252.973,292.427 251.973,293.094 251.5,294.5C 248.992,296.924 245.992,298.59 242.5,299.5C 240.847,299.66 239.514,300.326 238.5,301.5C 235.912,303.592 232.912,304.925 229.5,305.5C 226.215,305.928 223.215,306.928 220.5,308.5C 219.508,308.672 218.842,308.338 218.5,307.5C 218.328,306.508 218.662,305.842 219.5,305.5C 221.408,304.514 222.408,302.848 222.5,300.5C 223.774,297.24 225.44,294.24 227.5,291.5C 229.942,289.879 231.275,287.546 231.5,284.5C 233.408,283.514 234.408,281.848 234.5,279.5C 234.414,278.504 234.748,277.671 235.5,277C 247.847,276.167 260.18,276.334 272.5,277.5C 269.105,281.898 265.105,285.564 260.5,288.5 Z"/></g>
<g><path style="opacity:0.745" fill="#757575" d="M 89.5,280.5 C 92.0892,281.419 94.0892,283.086 95.5,285.5C 92.9108,284.581 90.9108,282.914 89.5,280.5 Z"/></g>
<g><path style="opacity:0.737" fill="#797979" d="M 134.5,279.5 C 137.258,281.379 138.925,284.046 139.5,287.5C 137.336,285.178 135.669,282.511 134.5,279.5 Z"/></g>
<g><path style="opacity:0.894" fill="#686868" d="M 234.5,279.5 C 234.408,281.848 233.408,283.514 231.5,284.5C 231.75,282.326 232.75,280.659 234.5,279.5 Z"/></g>
<g><path style="opacity:0.329" fill="#919191" d="M 126.5,282.5 C 127.906,282.973 128.573,283.973 128.5,285.5C 127.094,285.027 126.427,284.027 126.5,282.5 Z"/></g>
<g><path style="opacity:0.208" fill="#a3a3a3" d="M 222.5,283.5 C 222.25,285.674 221.25,287.341 219.5,288.5C 219.273,286.067 220.273,284.401 222.5,283.5 Z"/></g>
<g><path style="opacity:0.631" fill="#7f7f7f" d="M 231.5,284.5 C 231.275,287.546 229.942,289.879 227.5,291.5C 228.468,288.9 229.801,286.566 231.5,284.5 Z"/></g>
<g><path style="opacity:0.024" fill="#b0b0b0" d="M 260.5,288.5 C 260.027,289.906 259.027,290.573 257.5,290.5C 257.973,289.094 258.973,288.427 260.5,288.5 Z"/></g>
<g><path style="opacity:0.286" fill="#a2a2a2" d="M 219.5,288.5 C 219.573,290.027 218.906,291.027 217.5,291.5C 217.427,289.973 218.094,288.973 219.5,288.5 Z"/></g>
<g><path style="opacity:0.384" fill="#979797" d="M 130.5,289.5 C 131.906,289.973 132.573,290.973 132.5,292.5C 131.094,292.027 130.427,291.027 130.5,289.5 Z"/></g>
<g><path style="opacity:1" fill="#4a4a4a" d="M 217.5,291.5 C 216.59,294.992 214.924,297.992 212.5,300.5C 213.747,298.007 213.747,295.507 212.5,293C 212.833,292.5 213.167,292 213.5,291.5C 214.865,292.807 216.198,292.807 217.5,291.5 Z"/></g>
<g><path style="opacity:0.063" fill="#a3a3a3" d="M 254.5,292.5 C 254.027,293.906 253.027,294.573 251.5,294.5C 251.973,293.094 252.973,292.427 254.5,292.5 Z"/></g>
<g><path style="opacity:0.965" fill="#505050" d="M 113.5,297.5 C 115.713,298.605 117.88,298.605 120,297.5C 122.734,298.362 122.901,299.195 120.5,300C 123.239,301.026 125.572,302.526 127.5,304.5C 122.236,303.201 117.569,300.868 113.5,297.5 Z"/></g>
<g><path style="opacity:0.988" fill="#535353" d="M 150.5,306.5 C 148.412,304.664 147.079,302.331 146.5,299.5C 147.397,298.402 148.23,298.402 149,299.5C 149.44,301.866 149.94,304.199 150.5,306.5 Z"/></g>
<g><path style="opacity:0.18" fill="#a5a5a5" d="M 242.5,299.5 C 241.713,301.104 240.38,301.771 238.5,301.5C 239.514,300.326 240.847,299.66 242.5,299.5 Z"/></g>
<g><path style="opacity:0.376" fill="#8c8c8c" d="M 212.5,300.5 C 212.25,302.674 211.25,304.341 209.5,305.5C 209.75,303.326 210.75,301.659 212.5,300.5 Z"/></g>
<g><path style="opacity:0.925" fill="#626262" d="M 222.5,300.5 C 222.408,302.848 221.408,304.514 219.5,305.5C 219.75,303.326 220.75,301.659 222.5,300.5 Z"/></g>
<g><path style="opacity:0.686" fill="#6c6c6c" d="M 127.5,304.5 C 130.491,304.166 132.824,305.166 134.5,307.5C 131.843,307.065 129.509,306.065 127.5,304.5 Z"/></g>
<g><path style="opacity:0.396" fill="#888888" d="M 138.5,303.5 C 139.906,303.973 140.573,304.973 140.5,306.5C 139.094,306.027 138.427,305.027 138.5,303.5 Z"/></g>
<g><path style="opacity:0.486" fill="#8f8f8f" d="M 229.5,305.5 C 226.916,307.472 223.916,308.472 220.5,308.5C 223.215,306.928 226.215,305.928 229.5,305.5 Z"/></g>
<g><path style="opacity:0.42" fill="#999999" d="M 140.5,306.5 C 141.478,306.811 142.145,307.478 142.5,308.5C 141.042,309.782 139.708,309.782 138.5,308.5C 139.833,308.5 140.5,307.833 140.5,306.5 Z"/></g>
<g><path style="opacity:0.047" fill="#bebebe" d="M 209.5,305.5 C 209.771,307.38 209.104,308.713 207.5,309.5C 207.66,307.847 208.326,306.514 209.5,305.5 Z"/></g>
<g><path style="opacity:0.31" fill="#919191" d="M 218.5,307.5 C 218.842,308.338 219.508,308.672 220.5,308.5C 219.614,309.776 218.614,309.776 217.5,308.5C 217.624,307.893 217.957,307.56 218.5,307.5 Z"/></g>
<g><path style="opacity:0.604" fill="#848484" d="M 151.5,309.5 C 153.144,309.81 154.144,310.81 154.5,312.5C 152.856,312.19 151.856,311.19 151.5,309.5 Z"/></g>
</svg>
