<svg width="47" height="47" viewBox="0 0 47 47" fill="none" xmlns="http://www.w3.org/2000/svg">
<path id="Vector" d="M23.5052 11.2619C16.8366 11.2619 11.4577 16.5538 11.4577 23.1144C11.4577 29.6751 16.8366 34.9669 23.5052 34.9669C30.1738 34.9669 35.5528 29.6751 35.5528 23.1144C35.5528 16.5538 30.1738 11.2619 23.5052 11.2619ZM23.5052 30.8201C19.1958 30.8201 15.6728 27.3644 15.6728 23.1144C15.6728 18.8644 19.1853 15.4088 23.5052 15.4088C27.8252 15.4088 31.3377 18.8644 31.3377 23.1144C31.3377 27.3644 27.8147 30.8201 23.5052 30.8201ZM38.8556 10.7771C38.8556 12.3141 37.5974 13.5417 36.0456 13.5417C34.4833 13.5417 33.2355 12.3038 33.2355 10.7771C33.2355 9.25041 34.4938 8.01255 36.0456 8.01255C37.5974 8.01255 38.8556 9.25041 38.8556 10.7771ZM46.8349 13.5829C46.6566 9.87966 45.7968 6.59933 43.0392 3.89668C40.2921 1.19402 36.9578 0.348148 33.1936 0.162469C29.3141 -0.0541563 17.6859 -0.0541563 13.8064 0.162469C10.0527 0.337832 6.7184 1.1837 3.96079 3.88636C1.20318 6.58902 0.353876 9.86934 0.165142 13.5726C-0.0550474 17.3893 -0.0550474 28.8292 0.165142 32.6459C0.343391 36.3492 1.20318 39.6295 3.96079 42.3322C6.7184 45.0348 10.0422 45.8807 13.8064 46.0664C17.6859 46.283 29.3141 46.283 33.1936 46.0664C36.9578 45.891 40.2921 45.0452 43.0392 42.3322C45.7863 39.6295 46.6461 36.3492 46.8349 32.6459C47.055 28.8292 47.055 17.3996 46.8349 13.5829ZM41.8229 36.7412C41.0051 38.763 39.4218 40.3207 37.3562 41.1356C34.2631 42.3425 26.9234 42.064 23.5052 42.064C20.0871 42.064 12.7369 42.3322 9.65427 41.1356C7.59916 40.331 6.0159 38.7733 5.18756 36.7412C3.96079 33.6981 4.24389 26.4773 4.24389 23.1144C4.24389 19.7516 3.97128 12.5204 5.18756 9.48767C6.00541 7.46583 7.58868 5.9082 9.65427 5.09327C12.7474 3.88636 20.0871 4.16488 23.5052 4.16488C26.9234 4.16488 34.2736 3.89667 37.3562 5.09327C39.4113 5.89788 40.9946 7.45552 41.8229 9.48767C43.0497 12.5307 42.7666 19.7516 42.7666 23.1144C42.7666 26.4773 43.0497 33.7084 41.8229 36.7412Z" fill="black"/>
</svg>
