<svg width="47" height="44" viewBox="0 0 47 44" fill="none" xmlns="http://www.w3.org/2000/svg">
<g id="phone-solid 1" clip-path="url(#clip0_20_208)">
<path id="Vector" d="M15.1373 2.86232C14.4305 1.29244 12.567 0.456853 10.7861 0.904185L2.70801 2.92984C1.11074 3.33497 0 4.66852 0 6.18776C0 27.0689 18.4145 44 41.125 44C42.7773 44 44.2277 42.9787 44.6684 41.5101L46.8715 34.0827C47.358 32.4453 46.4492 30.7319 44.7418 30.082L35.9293 26.7059C34.433 26.132 32.698 26.5287 31.6791 27.685L27.9705 31.846C21.508 29.0354 16.2756 24.2245 13.2188 18.2826L17.7443 14.8812C19.002 13.9359 19.4334 12.3491 18.8092 10.9734L15.1373 2.87076V2.86232Z" fill="black"/>
</g>
<defs>
<clipPath id="clip0_20_208">
<rect width="47" height="43.2139" fill="white" transform="translate(0 0.786072)"/>
</clipPath>
</defs>
</svg>
