<svg width="35" height="45" viewBox="0 0 35 45" fill="none" xmlns="http://www.w3.org/2000/svg">
<path id="Vector" d="M19.6602 43.484C24.3359 37.925 35 24.4517 35 16.8838C35 7.70539 27.1615 0.258728 17.5 0.258728C7.83854 0.258728 0 7.70539 0 16.8838C0 24.4517 10.6641 37.925 15.3398 43.484C16.4609 44.8088 18.5391 44.8088 19.6602 43.484ZM17.5 11.3421C19.0471 11.3421 20.5308 11.926 21.6248 12.9653C22.7188 14.0045 23.3333 15.4141 23.3333 16.8838C23.3333 18.3536 22.7188 19.7631 21.6248 20.8024C20.5308 21.8417 19.0471 22.4255 17.5 22.4255C15.9529 22.4255 14.4692 21.8417 13.3752 20.8024C12.2812 19.7631 11.6667 18.3536 11.6667 16.8838C11.6667 15.4141 12.2812 14.0045 13.3752 12.9653C14.4692 11.926 15.9529 11.3421 17.5 11.3421Z" fill="black"/>
</svg>
