<svg width="50" height="51" viewBox="0 0 50 51" fill="none" xmlns="http://www.w3.org/2000/svg">
<g id="envelope-regular 1">
<path id="Vector" d="M6.25 11.4993C5.39062 11.4993 4.6875 12.206 4.6875 13.0696V15.2385L21.5332 29.1355C23.5547 30.8039 26.4551 30.8039 28.4766 29.1355L45.3125 15.2385V13.0696C45.3125 12.206 44.6094 11.4993 43.75 11.4993H6.25ZM4.6875 21.3332V38.194C4.6875 39.0576 5.39062 39.7643 6.25 39.7643H43.75C44.6094 39.7643 45.3125 39.0576 45.3125 38.194V21.3332L31.4453 32.7765C27.6953 35.868 22.2949 35.868 18.5547 32.7765L4.6875 21.3332ZM0 13.0696C0 9.60519 2.80273 6.78851 6.25 6.78851H43.75C47.1973 6.78851 50 9.60519 50 13.0696V38.194C50 41.6584 47.1973 44.4751 43.75 44.4751H6.25C2.80273 44.4751 0 41.6584 0 38.194V13.0696Z" fill="black"/>
</g>
</svg>
